<?xml version="1.0" standalone="no"?>
<!DOCTYPE svg PUBLIC "-//W3C//DTD SVG 1.1//EN" "http://www.w3.org/Graphics/SVG/1.1/DTD/svg11.dtd" >
<svg xmlns="http://www.w3.org/2000/svg">
<metadata></metadata>
<defs>
<font id="abolonregular" horiz-adv-x="1228" >
<font-face units-per-em="2048" ascent="1638" descent="-410" />
<missing-glyph horiz-adv-x="819" />
<glyph horiz-adv-x="2048" />
<glyph horiz-adv-x="2048" />
<glyph unicode="&#xd;" horiz-adv-x="2048" />
<glyph unicode=" "  horiz-adv-x="819" />
<glyph unicode="&#x09;" horiz-adv-x="819" />
<glyph unicode="&#xa0;" horiz-adv-x="819" />
<glyph unicode="!" horiz-adv-x="768" d="M240 172q0 79 46 125.5t122 46.5q70 0 118.5 -49.5t48.5 -122.5q0 -78 -46.5 -127t-120.5 -49t-121 48.5t-47 127.5zM274 1180q-2 69 33 114t92 45q54 0 89.5 -45t35.5 -114v-11l-30 -626q-1 -44 -29 -73.5t-66 -29.5t-67 29q-21 35 -27 74z" />
<glyph unicode="&#x22;" horiz-adv-x="872" d="M137 1249q-6 74 66 74h90q63 0 63 -74v-14l-28 -305q-6 -76 -68 -88h-22q-66 0 -72 88zM463 1249q-6 74 65 74h88q64 0 64 -74v-14l-29 -305q-6 -79 -65 -88h-25q-63 0 -69 88z" />
<glyph unicode="#" horiz-adv-x="1597" d="M127 481q0 79 86 94h240l69 216h-221q-77 0 -86 88q0 92 86 92h279l79 250q15 52 72 61q94 0 94 -92v-21l-6 -10l-59 -188h235l86 250q15 49 68 61q98 0 98 -92l-2 -19l-4 -12l-63 -188h165q36 0 61.5 -26t25.5 -64q0 -81 -84 -90h-226l-67 -216h202q86 0 86 -90 q0 -86 -86 -86h-260l-110 -317q-15 -49 -68 -64q-100 0 -100 93v18l8 16l90 254h-237l-113 -317q-27 -64 -72 -64q-96 0 -96 93l2 18l6 14l92 256h-182q-67 0 -88 82zM633 575h239l66 216h-236z" />
<glyph unicode="$" horiz-adv-x="1130" d="M148 239q-4 30 6 97q6 78 96 46q62 -22 113 -71l12 -12q2 -3 10 -10t27 -18.5t42 -21t59 -16.5t75 -6q78 0 126 38.5t48 101.5q0 47 -29 84q-40 46 -330 157q-105 42 -165 131t-60 207q0 141 86 232t236 110l2 60q3 112 94 112q86 0 86 -104v-15l-2 -65l16 -6l31 -8 q7 -2 55 -25q162 -101 148 -215q-15 -42 -43.5 -62.5t-57 -18t-55 24t-39.5 56.5q-12 32 -61.5 53t-106.5 21q-80 0 -132 -39t-52 -101q0 -100 123 -147l186 -70q140 -58 191 -118q88 -104 88 -244q0 -148 -76 -221q-133 -127 -266 -133l-11 -119q-3 -53 -22 -84 q-26 -33 -76 -33q-35 0 -63 31q-21 34 -21 82v20l10 115h-12q-185 91 -225 119q-54 38 -61 85z" />
<glyph unicode="%" horiz-adv-x="1617" d="M158 973q0 137 84 227q85 88 217 88q131 0 213 -88q84 -90 84 -227q0 -132 -86 -221q-82 -88 -211 -88q-130 0 -215 88q-86 89 -86 221zM254 53q-22 51 12 99l1024 1112q45 19 88 -21l17 -26q9 -24 6 -56l-21 -39l-1024 -1114q-69 -29 -102 45zM324 973q0 -59 38.5 -95 t96.5 -36q62 0 98 39q37 30 37 92q0 58 -37.5 96.5t-97.5 38.5q-57 0 -96 -39t-39 -96zM895 311q0 93 48 172t128 117q51 23 125 23q129 0 211 -88q86 -86 86 -224q0 -135 -84 -225q-82 -88 -213 -88q-135 0 -217 88q-84 90 -84 225zM1061 311q0 -135 135 -135 q133 0 133 135q0 57 -37 95t-96 38q-60 0 -97.5 -38t-37.5 -95z" />
<glyph unicode="&#x26;" horiz-adv-x="1173" d="M141 340q0 89 69 200.5t169 202.5q-18 33 -57 119l-17 62l-6 61q0 126 80 209q81 84 196 84q48 0 136 -37q72 -31 107 -60t38 -51q0 -45 -30 -83.5t-68 -38.5q-7 0 -135 67l-41 8q-33 0 -58.5 -25.5t-25.5 -60.5v-32l12 -29q9 -27 68 -113l206 -319l7 26l30 117 q27 76 84 76h58q32 0 53.5 -32.5t21.5 -76.5q0 -33 -16.5 -67.5t-79.5 -145.5l-33 -82l45 -67h9q20 0 47 -27q18 -35 18 -69q3 -113 -72 -113h-77q-28 0 -72 59l-8 11l-13 20q-66 -62 -161 -110t-166 -48q-133 0 -203 82q-115 130 -115 283zM354 362q0 -74 40.5 -121.5 t103.5 -47.5q31 0 88 35.5t88 68.5l-185 276q-48 -41 -91.5 -104.5t-43.5 -106.5z" />
<glyph unicode="'" horiz-adv-x="471" d="M137 1249q-6 74 66 74h90q63 0 63 -74v-14l-28 -305q-6 -76 -68 -88h-22q-66 0 -72 88z" />
<glyph unicode="(" horiz-adv-x="669" d="M174 451q0 363 150 653q122 239 202 239q39 0 54 -73q0 -22 -78 -228q-63 -158 -78 -270l-25 -176l-6 -147q-9 -251 62 -461l125 -350q0 -35 -10 -50.5t-40 -27.5q-66 0 -165 166q-191 317 -191 725z" />
<glyph unicode=")" horiz-adv-x="749" d="M106 -365q0 33 35 105q84 218 113 346q41 178 41 365q0 146 -49 395q-10 43 -64 196l-32 93l-31 79l-13 50q0 70 54 79q32 0 78 -40q98 -115 172 -299q104 -259 104 -553q0 -316 -86 -508q-18 -60 -76 -168q-55 -107 -98 -156q-50 -59 -92 -59q-31 0 -49 43z" />
<glyph unicode="*" horiz-adv-x="1083" d="M129 918l2 20l8 20l21 78l16 37l27 14h24l17 -6l225 -127l-37 299l6 29q17 17 58 23h73q57 0 66 -56v-14l-35 -281l244 131l22 5l23 -15l18 -39l29 -104l4 -23l-18 -28l-29 -11l-254 -53l192 -215l7 -31l-13 -26l-22 -23l-82 -65l-25 -6l-24 14l-19 24l-118 244 l-119 -246l-17 -20l-30 -16l-23 8l-18 16l-64 47l-24 23l-11 28l9 29l14 21l176 194l-252 53l-33 11z" />
<glyph unicode="+" d="M98 590q0 42 31 73t70 31h319v348q0 93 94 111q97 0 97 -111v-348h321q86 0 98 -102q0 -40 -30 -78q-34 -27 -68 -27h-321v-327q0 -48 -27 -82q-34 -27 -70 -27q-22 0 -65 29q-21 31 -29 80v327h-319q-41 0 -71 30t-30 73z" />
<glyph unicode="," horiz-adv-x="686" d="M125 -190l2 10l90 413q6 33 18 44t46 16h161l29 -6l6 -17l4 -8l-2 -22l-4 -17l-199 -467q-6 -17 -22 -30l-25 -9l-20 7l-51 22l-23 16l-10 27v21z" />
<glyph unicode="-" d="M154 463v94q0 46 61 55h791q69 0 69 -55v-92q0 -20 -20 -43q-19 -16 -47 -19h-789q-14 0 -53 17z" />
<glyph unicode="." horiz-adv-x="827" d="M190 180q0 86 56 141.5t141 55.5q199 0 199 -197q0 -85 -56 -140.5t-143 -55.5t-142 54.5t-55 141.5z" />
<glyph unicode="/" horiz-adv-x="854" d="M100 70l2 28l9 27l446 1089q20 52 47 86q30 23 58 23q30 0 65 -27q25 -41 27 -71l-4 -29l-9 -25l-446 -1093q-47 -109 -102 -109q-30 0 -66 31q-21 30 -27 70z" />
<glyph unicode="0" horiz-adv-x="1052" d="M109 639q0 163 26.5 275t83.5 214q114 199 299 199t299 -199q59 -103 86 -215.5t27 -273.5q0 -159 -26 -262t-85 -209q-111 -199 -301 -199q-182 0 -297 201q-60 105 -86 208t-26 261zM313 639q0 -83 7 -129.5t26 -122.5q53 -213 172 -213q97 0 121 62q48 117 68 201.5 t20 201.5q0 257 -51 370t-158 113q-117 0 -170 -213q-35 -143 -35 -270z" />
<glyph unicode="1" horiz-adv-x="753" d="M127 1120q0 78 78 99l299 90q45 3 67.5 -20t22.5 -72v-1065l6 -109q-6 -25 -41 -37q-7 -7 -56 -6t-61 0q-21 -3 -37 10t-16 27q8 131 8 133v901l-170 -47h-14q-36 0 -61 27.5t-25 68.5z" />
<glyph unicode="2" horiz-adv-x="1146" d="M127 109q0 65 190 258l27 26q133 133 240 248q164 170 164 274q0 92 -51.5 152.5t-133.5 60.5l-55 -6q-20 -3 -64 -24l-79 -78q-81 -78 -103 -78q-86 0 -86 127v37l6 24l13 23q72 75 151 109q125 51 219 51q171 0 283 -109q115 -112 115 -276q0 -150 -172 -355 q-96 -114 -287 -297l-74 -71h414h17q47 0 70 -2t52.5 -12t38.5 -36t2 -69q-6 -86 -82 -86h-690q-55 0 -94 25q-31 39 -31 84z" />
<glyph unicode="3" horiz-adv-x="1095" d="M123 186q0 80 98 95q52 -20 121 -54q97 -47 182 -47q106 0 171 58.5t65 154.5q0 156 -166 199l-66 8q-104 0 -104 92q0 41 25.5 65t72.5 27l56 9q64 8 104.5 51t40.5 108q0 79 -51.5 133t-126.5 54q-47 0 -158 -49l-111 -56q-77 0 -86 86q0 75 68 113q126 63 166 76 q85 16 135 16q160 0 264 -98q107 -96 107 -246q0 -188 -154 -268q195 -92 195 -320q0 -181 -125 -297q-86 -80 -160 -102q-65 -14 -166 -14q-158 0 -278 63q-119 67 -119 143z" />
<glyph unicode="4" horiz-adv-x="1103" d="M127 375v69q0 47 41 113l414 713q22 29 32 35l35 16l33 -4l6 -4l94 -13q47 -6 56 -73v-735h26q68 5 97 -32.5t8 -123.5q-21 -47 -72 -47h-59v-250q2 -6 0 -12.5t-14 -13t-33 -7.5q-9 -1 -41.5 -6t-49.5 -4t-28 3t-17 3t-9 6.5t-4 7t-1 10.5v13v250h-436q-66 0 -78 86z M334 492h307v552z" />
<glyph unicode="5" horiz-adv-x="1112" d="M119 156q0 30 26 69q33 26 66 29q219 -82 295 -82q116 0 188 76.5t72 200.5q0 119 -70 198q-67 82 -170 82q-57 0 -260 -96q-82 0 -82 135v444q0 95 113 95h477q51 0 84 -31t33 -78q0 -46 -35 -84q-38 -27 -82 -27h-401v-196l22 8l78 21q48 10 90 10q177 0 293 -137 q117 -138 117 -338q0 -213 -131 -353q-130 -139 -326 -139q-177 0 -287 53.5t-110 139.5z" />
<glyph unicode="6" horiz-adv-x="1161" d="M135 543q0 341 189 551q188 209 495 209q105 0 144 -17q49 -14 49 -74q0 -86 -150 -86q-105 0 -180 -20q-222 -69 -299 -371q92 80 231 80q170 0 293 -123q123 -126 123 -301q0 -183 -119 -305q-117 -123 -301 -123q-107 0 -201 35t-143 96q-77 94 -104 199.5t-27 249.5z M389 397q0 -108 60 -176.5t155 -68.5q92 0 144.5 63t52.5 170q0 109 -58 176q-40 42 -73 57q-24 9 -74 9q-87 0 -147 -65.5t-60 -164.5z" />
<glyph unicode="7" horiz-adv-x="974" d="M92 1214q6 74 86 86h623q67 0 76 -79v-39l-5 -39l-16 -60l-301 -1022q-3 -21 -25 -49l-30 -12h-88q-58 0 -64 59l2 21l6 22l324 985h-424q-28 2 -40 3.5t-36 6t-35.5 12.5t-25.5 21t-20.5 34.5t-6.5 49.5z" />
<glyph unicode="8" horiz-adv-x="1093" d="M123 362q0 198 176 304q-166 105 -166 284q0 163 119 267q118 106 293 106q174 0 295 -106t121 -256q0 -197 -162 -295q174 -94 174 -308q0 -169 -123 -280q-117 -111 -305 -111q-185 0 -305 111q-117 111 -117 284zM330 362q0 -95 59 -151.5t156 -56.5q219 0 219 204 q0 91 -61 149t-158 58q-94 0 -154.5 -56t-60.5 -147zM342 950q0 -89 56 -143.5t147 -54.5t148 55t57 143q0 78 -56 137q-38 42 -71 50q-21 8 -78 8q-92 0 -147.5 -52.5t-55.5 -142.5z" />
<glyph unicode="9" horiz-adv-x="1099" d="M129 887q0 186 111 309t282 123q101 0 191.5 -42t150.5 -122q60 -79 83.5 -182t23.5 -242q0 -331 -178 -536t-474 -205h-73q-28 4 -66 18q-35 22 -35 72q0 90 138 90q114 0 170 16q111 31 181.5 116.5t102.5 236.5q-19 -22 -86 -50l-43 -14l-45 -10q-189 -9 -311 113 q-123 120 -123 309zM342 897q0 -108 54 -176t141 -68t141.5 64.5t54.5 165.5q0 108 -56.5 177.5t-146.5 69.5q-87 0 -137.5 -63.5t-50.5 -169.5z" />
<glyph unicode=":" horiz-adv-x="710" d="M188 152q0 73 44.5 120t113.5 47q71 0 115.5 -45.5t44.5 -121.5q0 -73 -45.5 -120.5t-114.5 -47.5t-113.5 46.5t-44.5 121.5zM188 813q0 73 44.5 120.5t113.5 47.5q71 0 115.5 -46t44.5 -122q0 -73 -45.5 -120.5t-114.5 -47.5t-113.5 46.5t-44.5 121.5z" />
<glyph unicode=";" horiz-adv-x="798" d="M143 -182l88 401q6 35 17.5 46.5t42.5 17.5h153l23 -9l12 -16l2 -16l-2 -17l-6 -14l-184 -457l-17 -22l-28 -15l-11 2h-8l-49 23q-18 0 -24 22l-9 25v29zM209 813q0 73 44.5 120.5t113.5 47.5q71 0 115 -46t44 -122q0 -73 -45 -120.5t-114 -47.5t-113.5 46.5t-44.5 121.5 z" />
<glyph unicode="&#x3c;" horiz-adv-x="1337" d="M176 530q0 73 113 125l841 412q87 0 87 -94q0 -69 -91 -117l-651 -326l651 -329q67 -36 84 -80l7 -31q0 -105 -115 -96l-29 10l-26 14l-768 392q-103 53 -103 120z" />
<glyph unicode="=" horiz-adv-x="1288" d="M127 424q0 98 84 98h856q84 0 84 -98q0 -41 -24.5 -69.5t-59.5 -28.5h-856q-33 0 -58.5 29t-25.5 69zM127 758q0 100 84 100h856q35 0 59.5 -29.5t24.5 -70.5t-24.5 -68.5t-59.5 -27.5h-856q-34 0 -64 24q-20 36 -20 72z" />
<glyph unicode="&#x3e;" horiz-adv-x="1366" d="M133 96q0 35 23 68q46 36 71 49l650 330l-650 325q-94 46 -94 121q0 32 23 62q24 19 63 28l37 -6l49 -22l770 -387q101 -49 101 -121q0 -61 -97 -115l-16 -10l-758 -387q-53 -27 -84 -27q-41 0 -65 27q-13 19 -23 65z" />
<glyph unicode="?" horiz-adv-x="1093" d="M153.5 1128q15.5 38 54 72t80.5 58.5t79 37.5q49 19 151 19q207 0 330 -117q56 -53 76.5 -110t15.5 -140q-1 -26 -9.5 -48t-17.5 -36t-30 -31.5t-32.5 -25.5t-41 -25.5t-41.5 -25.5q-131 -73 -173.5 -125.5t-33.5 -118.5q3 -27 -41 -39.5t-91 -2.5t-52 38 q-4 16 -4.5 21.5t1 14t1.5 21.5q0 82 43 125q82 82 192 148q140 82 140 137q0 35 -17 71t-47 52q-52 30 -139 30q-71 0 -145.5 -24t-106.5 -70q-54 -51 -72 -51q-36 0 -69 68q-16 39 -0.5 77zM287 152q0 73 44 120t113 47q71 0 115.5 -45.5t44.5 -121.5q0 -73 -45.5 -120.5 t-114.5 -47.5t-113 46.5t-44 121.5z" />
<glyph unicode="@" horiz-adv-x="1210" d="M143 352q0 562 230 746q63 53 182 59q93 6 184 -27.5t165 -100t119.5 -174t45.5 -237.5v-425l21 -39l12 -43q0 -48 -31 -83.5t-74 -35.5l-41 16l-32 29l-23 -8q-33 -14 -76 -21q-128 -11 -223.5 80.5t-95.5 237.5q0 163 111 265.5t268 102.5h8q0 65 -37 123.5t-90 94 t-113 52t-106 5.5q-105 -24 -165 -174.5t-60 -419.5q0 -649 280 -649q29 0 49 4l84 28l35 9q51 0 66 -76q0 -67 -70.5 -111.5t-173.5 -44.5q-213 0 -331 215t-118 602zM678 332q0 -68 24 -109q14 -14 52.5 -22t68.5 -8l35 6l35 14v305l-14 4q-78 0 -139.5 -53.5 t-61.5 -136.5z" />
<glyph unicode="A" d="M76 59l354 1041q30 106 79 159q43 47 102 47q8 0 16 -1q61 0 86 -25q23 -16 41 -63l417 -1147q1 -46 -47 -64q-23 -8 -48 -9q-26 0 -54 10q-52 19 -61 63l-121 329h-455l-109 -340q-36 -61 -112 -62h-4q-54 0 -78 27q-9 10 -9 21q0 7 3 14zM451 592h321l-168 463z" />
<glyph unicode="B" horiz-adv-x="1114" d="M133 201v899v13q0 69 19 123q21 60 63 69h309q209 0 324 -96t115 -269q0 -157 -103 -246q176 -89 176 -309q0 -137 -76 -237t-206 -132q-66 -16 -170 -16h-363q-88 30 -88 178v23zM332 201h188q176 0 240 49q61 37 61 141t-66 147.5t-227 43.5h-196v-381zM332 764h176 q242 0 242 168q0 81 -51.5 124.5t-153.5 43.5h-213v-336z" />
<glyph unicode="C" horiz-adv-x="1191" d="M84 651q0 295 162 490q163 196 409 196q92 0 254 -57q149 -95 149 -197q0 -62 -49 -95q-23 -16 -42 -16q-14 0 -27 9q-9 6 -14 16q-3 5 -11 21.5t-13 24.5t-14.5 20.5t-23 22.5t-30.5 18q-79 39 -179 39q-159 0 -254 -129q-116 -155 -116 -350q0 -185 116 -347 q95 -133 256 -133q33 0 95 15l63 22l55 31q44 36 142 90q43 0 71.5 -29t28.5 -73q0 -43 -43 -95q-77 -86 -235 -143q-88 -33 -183 -33q-242 0 -405 193q-162 192 -162 489z" />
<glyph unicode="D" horiz-adv-x="1134" d="M125 201v899q-2 22 -2 42q0 141 82 163h303q253 0 397 -179q148 -177 148 -475q0 -223 -88 -381q-28 -51 -91 -120q-131 -155 -404 -155q-20 0 -40 1l-133 4q-59 13 -96 33t-50.5 44t-18 44.5t-4.5 45t-3 34.5zM322 201l36 -4h58q229 0 330.5 105.5t101.5 348.5 q0 238 -103 344q-71 74 -147 95q-49 14 -188 14h-68l-20 -2v-901z" />
<glyph unicode="E" horiz-adv-x="1050" d="M131 201v899q-1 21 -1 40q0 160 91 164h658q47 0 71 -28q21 -25 22 -68q0 -7 -1 -14q-4 -56 -41 -71.5t-142 -22.5h-458v-303h385q31 -10 46 -39t12.5 -59t-18.5 -54.5t-40 -28.5h-385v-415h458q15 1 29 1q154 0 154 -90v-6q0 -49 -25 -77.5t-67 -28.5h-660 q-88 12 -88 189v12z" />
<glyph unicode="F" horiz-adv-x="997" d="M129 59v1041q-1 21 -1 40q0 160 91 164h658q47 0 71 -28q21 -25 22 -68q0 -7 -1 -14q-4 -56 -41 -71.5t-142 -22.5h-458v-303h385q31 -10 46 -39t12.5 -59t-18.5 -54.5t-40 -28.5h-385v-557q-5 -25 -28 -41q-22 -14 -50 -18q-12 -2 -25 -2q-15 0 -31 2q-28 4 -47 20.5 t-18 38.5z" />
<glyph unicode="G" horiz-adv-x="1212" d="M86 645q0 303 166 502q155 186 407 192h13q84 0 180 -23q104 -25 168 -89q43 -43 46 -99v-9q0 -50 -31 -69q-14 -10 -34 -10q-27 0 -63 17q-51 29 -99.5 49t-109.5 32q-41 8 -78 8q-19 0 -37 -2q-53 -6 -108.5 -38t-99.5 -92q-117 -159 -117 -350q0 -199 125 -361 q105 -135 284 -135q106 0 213 55v291h-211q-70 0 -79 92q0 46 16 78q24 21 68 21h313q24 0 41 -12t26 -28t14 -41.5t5.5 -42t1 -40.5t0.5 -27v-375l-8 -53q-147 -123 -416 -123q-258 0 -428 191q-168 192 -168 491z" />
<glyph unicode="H" horiz-adv-x="1124" d="M129 57v1203q2 19 23 33t49 18q17 2 34 2q11 -1 21 -1q28 -2 47 -16t19 -36v-474h483v474q2 19 22.5 33t48.5 18q17 2 34 2q12 -1 22 -1q28 -2 46.5 -16t18.5 -36v-1203q-12 -45 -59 -57q-19 -5 -37 -6q-27 0 -53 12q-42 18 -43 51v531h-483v-531q-12 -45 -59 -57 q-19 -5 -37 -6q-27 0 -53 12q-43 18 -44 51z" />
<glyph unicode="I" horiz-adv-x="446" d="M129 57v1203q2 19 23 33t49 18q17 2 34 2q11 -1 21 -1q28 -2 47 -16t19 -36v-1203q-12 -45 -59 -57q-19 -5 -37 -6q-27 0 -53 12q-43 18 -44 51z" />
<glyph unicode="J" horiz-adv-x="1007" d="M76 387q0 77 18 111q21 21 66 24q68 0 88 -57q8 -62 15.5 -101t22.5 -83.5t36 -68.5t55 -40q32 -16 75 -16h5q97 2 161 81.5t64 239.5v787q0 27 48 38q25 6 49 6t49 -5q49 -11 53 -39l2 -813q0 -243 -107 -357t-311 -125q-15 -1 -29 -1q-160 0 -250 104q-97 114 -110 315 z" />
<glyph unicode="K" horiz-adv-x="1079" d="M139 57v1203q2 19 23 33t49 18q17 2 34 2q11 -1 21 -1q28 -2 47 -16t19 -36v-500l475 520q26 25 69 25q19 0 43 -5q63 -13 83 -48q6 -10 6 -20q0 -19 -23 -38l-424 -451q71 -30 133 -110q97 -126 240 -432q24 -40 35 -71.5t10 -61t-27.5 -47t-77.5 -21.5q-56 0 -90 49 l-106 219q-76 153 -103 191q-71 106 -157 129l-86 -92v-439q-12 -45 -59 -57q-19 -5 -37 -6q-27 0 -53 12q-43 18 -44 51z" />
<glyph unicode="L" horiz-adv-x="940" d="M129 57v1203q2 19 23 33t49 18q17 2 34 2q11 -1 21 -1q28 -2 47 -16t19 -36v-1059h411q81 0 109 -20.5t28 -76.5q0 -104 -94 -104h-514q-18 -5 -36 -5q-26 1 -52 11q-44 18 -45 51z" />
<glyph unicode="M" horiz-adv-x="1394" d="M129 57v1203q1 36 55 46q17 3 34 3q40 0 84 -17q64 -24 87 -75l311 -590q133 234 202.5 355t107.5 186t46.5 78.5t14.5 19.5q6 21 37.5 34t65.5 14h5q31 0 57 -13q28 -14 28 -41v-1203q-12 -45 -59 -57q-19 -5 -37 -6q-27 0 -53 12q-43 18 -44 51v873l-244 -461 q-35 -96 -133 -96q-93 0 -131 96l-241 489v-901q-12 -45 -59 -57q-19 -5 -37 -6q-27 0 -53 12q-43 18 -44 51z" />
<glyph unicode="N" horiz-adv-x="1210" d="M129 57v1203q8 32 50 48q27 10 54 10q15 0 31 -3q44 -9 53 -41q7 -8 570 -879v865q2 19 22.5 33t48.5 18t55.5 1.5t46.5 -16.5t19 -36v-1203q-11 -45 -55 -55q-16 -4 -32 -3q-27 0 -54 11q-42 18 -51 47l-23 37l-542 824v-861q-12 -45 -59 -57q-19 -5 -37 -6 q-27 0 -53 12q-43 18 -44 51z" />
<glyph unicode="O" horiz-adv-x="1308" d="M113 653q0 302 149 494q143 184 389 184q245 0 389 -186q154 -195 154 -492t-154 -495q-142 -183 -389 -183q-241 0 -385 185q-153 197 -153 493zM313 653q0 -74 19 -154t57 -156.5t106.5 -125.5t155.5 -49q70 0 128.5 31.5t97.5 82t66.5 115t39.5 129.5t12 127 q0 82 -21 165t-61.5 155.5t-109 118t-152.5 45.5q-71 0 -130 -31.5t-96.5 -82t-63.5 -115.5t-37 -129t-11 -126z" />
<glyph unicode="P" horiz-adv-x="1114" d="M129 57v1203q2 17 13 26.5t36.5 13.5t41.5 4.5t54 0.5h8h7h8h240q246 0 371.5 -114t125.5 -327q0 -92 -33 -183t-103 -164t-163 -93q-55 -14 -198 -14h-215v-353q-12 -45 -59 -57q-19 -5 -37 -6q-27 0 -53 12q-43 18 -44 51zM322 600h225q131 0 202.5 73t71.5 187 q0 78 -43.5 146t-115.5 86q-24 8 -340 8v-500z" />
<glyph unicode="Q" horiz-adv-x="1316" d="M121 651q0 292 155 490q142 182 383 182t385 -184q158 -202 158 -490q0 -303 -153 -491q-75 -94 -180 -135q-100 -39 -250 -39h-15l-67 -35q46 -1 213.5 -32.5t189.5 -31.5q24 0 59 21q6 2 23.5 9.5t28.5 11t28.5 8t29.5 2.5t24.5 -7.5t20.5 -20.5t11 -38q0 -56 -67 -96 q-64 -43 -140 -43q-55 0 -126.5 10.5t-123.5 19.5q-47 9 -107 9h-13q-68 -1 -129 -19l-58 -16q-50 0 -71 110q0 20 25 64.5t69 91.5l41 4q-157 62 -252 238q-92 176 -92 407zM342 649q0 -223 111 -389q66 -96 206 -96q146 0 234 131q90 134 90 354q0 317 -176 443 q-58 43 -148 43q-146 0 -231.5 -130.5t-85.5 -355.5z" />
<glyph unicode="R" horiz-adv-x="1171" d="M129 57v1182q7 43 95 60q54 10 133 10q51 0 112 -4q375 0 461 -209q41 -77 41 -178q0 -114 -55.5 -197t-174.5 -141q33 -19 64.5 -50.5t56.5 -64t55.5 -81.5t51 -86.5t53.5 -97.5t53 -96q19 -31 23 -52q1 -6 1 -11q1 -13 -7 -21q-10 -12 -28.5 -16.5t-47.5 -5.5l-78 2 q-25 0 -57.5 48t-153.5 256q-14 25 -22.5 39t-22 37t-25.5 44q-24 34 -48 56.5t-42 34.5t-42 18t-39.5 7t-43.5 1h-120v-484q-12 -45 -59 -57q-19 -5 -37 -6q-27 0 -53 12q-43 18 -44 51zM322 735h190q248 0 248 187q0 184 -240 184h-198v-371z" />
<glyph unicode="S" horiz-adv-x="1132" d="M109 240q-1 6 -1 12q0 28 24 58q28 36 52 38q29 3 56.5 -17.5t47 -48t51 -59t64.5 -45.5q44 -20 177 -20q113 0 182 55t69 147q0 114 -110 160q-33 5 -203 39q-196 41 -266 96q-123 94 -123 281q0 167 129 287q112 102 313 102q51 0 100 -6t112 -22.5t112.5 -55 t71.5 -94.5q14 -46 14 -79q0 -32 -13 -52q-26 -38 -76 -37h-5q-54 2 -92 39q-40 110 -230 110q-106 0 -170.5 -48t-64.5 -138q0 -100 104 -137l350 -70q248 -82 248 -354q0 -188 -129 -305q-66 -60 -195 -84q-85 -16 -166 -15q-41 0 -80 4q-117 12 -169 48q-177 96 -184 211 z" />
<glyph unicode="T" horiz-adv-x="1243" d="M68 1202q15 103 90 103h946q38 0 65 -27q25 -39 25 -78q0 -96 -100 -96h-379v-1047q-12 -45 -59 -57q-19 -5 -37 -6q-27 0 -53 12q-43 18 -44 51v1047h-348q-51 0 -82 22q-24 34 -24 76z" />
<glyph unicode="U" horiz-adv-x="1191" d="M119 465v803q5 27 79 36q23 3 42 3q45 0 70 -15q15 -10 12 -24v-721q0 -55 7 -104.5t25 -101t47 -89t77 -61t110 -23.5q74 0 129 29.5t86.5 81.5t47 113.5t17.5 133.5v742q6 22 52 34q26 7 51 6q19 0 39 -4q44 -8 47 -36v-766q0 -263 -128.5 -401t-353.5 -138 q-102 0 -190 35t-147 102q-119 137 -119 365z" />
<glyph unicode="V" horiz-adv-x="1218" d="M88 1257q-1 4 -1 7q0 21 41 33q30 9 60 9l60 -9q43 -14 49 -40l332 -976l315 968q10 34 60 47q24 6 47 6q25 0 47 -7q41 -13 41 -41v-5l-371 -1128q-46 -137 -113 -137h-55q-76 0 -125 141z" />
<glyph unicode="W" horiz-adv-x="1433" d="M82 1241q-3 37 47 55q27 9 53 10q24 0 48 -8q50 -16 49 -57l174 -838l149 533q12 40 28.5 54t59.5 18h47q71 0 92 -66l170 -545l175 858q6 27 50 41q24 7 48 7q18 0 38 -5q42 -11 48 -43l-240 -1177q0 -69 -65 -78h-76q-41 0 -62 63l-202 642l-181 -642q-15 -57 -81 -63 h-56q-26 0 -55 16l-18 60z" />
<glyph unicode="X" horiz-adv-x="1239" d="M92 47l424 617l-397 577q-1 5 -1 9q0 35 50 50q29 9 61 9q30 -1 63 -9q67 -16 87 -55l256 -434l274 436q25 36 89 50q30 7 57 7q31 0 57 -9q42 -14 42 -43q0 -5 -1 -11l-408 -569l420 -617q1 -4 1 -8q0 -27 -46 -40q-28 -8 -61 -8q-29 1 -60 7q-67 14 -94 49l-284 473 l-285 -485q-49 -41 -144 -43h-11q-72 0 -88 26q-3 5 -3 11q0 5 2 10z" />
<glyph unicode="Y" horiz-adv-x="1138" d="M78 1249q-2 6 -2 11q0 23 40 35q28 9 57 9q34 0 69 -12q42 -15 63 -43l277 -526l274 526q19 33 72 47q27 6 51.5 6t46.5 -6q38 -12 38 -39q0 -4 -1 -8l-395 -747v-463q-14 -26 -62 -35q-22 -5 -44 -5q-24 0 -46 5q-44 11 -47 35v481z" />
<glyph unicode="Z" horiz-adv-x="1062" d="M102 121q0 28 29 104l23 37l555 838h-394q-22 -2 -41 -2q-56 0 -90 20q-46 26 -53 90q3 97 98 97h600q136 0 136 -123l-7 -47l-16 -37l-16 -33l-572 -864h430q108 -1 150 -27q35 -22 35 -61q0 -8 -2 -17q0 -36 -23 -69l-33 -23l-39 -4h-657q-41 0 -78 29q-35 41 -35 92z " />
<glyph unicode="[" horiz-adv-x="673" d="M207 -311v1519q0 30 24 70q24 21 64 27h237q68 0 80 -91q0 -28 -20 -67q-18 -21 -60 -27h-126v-1343h124q28 0 58 -21q24 -30 24 -69t-22.5 -67t-57.5 -28h-237q-33 0 -60.5 29.5t-27.5 67.5z" />
<glyph unicode="\" horiz-adv-x="854" d="M100 1225q2 30 27 71q34 27 66 27q27 0 57 -23q27 -34 47 -86l446 -1089l9 -27l2 -28q-6 -40 -27 -70q-36 -31 -65 -31q-56 0 -103 109l-446 1093l-9 25z" />
<glyph unicode="]" horiz-adv-x="716" d="M78 -315q0 92 80 92h129v1343h-129q-68 0 -80 90q0 80 78 95h239q35 0 61.5 -29.5t26.5 -67.5v-1519q0 -34 -26 -70q-24 -21 -60 -27h-239q-68 0 -80 93z" />
<glyph unicode="^" horiz-adv-x="915" d="M90 881l2 26l14 25l261 352q16 19 34 27l43 8q45 0 84 -33l263 -356l8 -23l2 -24q0 -61 -68 -76l-26 2l-17 14l-246 258l-243 -260l-19 -12h-18q-17 0 -49 16q-22 22 -25 56z" />
<glyph unicode="_" horiz-adv-x="952" d="M12 -269.5q-1 63.5 35 81.5h856q25 -4 34 -42.5t-1 -78.5t-33 -49h-856q-34 25 -35 88.5z" />
<glyph unicode="`" horiz-adv-x="636" d="M119.5 1291q6.5 23 34.5 28h145q44 -3 59 -57l121 -306l6 -24q1 -28 -49.5 -50.5t-77.5 -9.5q-14 9 -22 29l-213 350q-10 17 -3.5 40z" />
<glyph unicode="a" horiz-adv-x="1069" d="M98 313q0 166 124 258.5t341 92.5h64l49 -9q39 0 88 -14q-7 88 -52.5 124t-136.5 36q-23 0 -153 -43l-133 -41q-32 0 -68 31q-20 39 -20 81q0 71 114 121q111 51 283 51q184 0 273.5 -90.5t89.5 -285.5v-424q5 -45 5 -78q0 -61 -16 -87q-23 -38 -69 -38h-9q-83 0 -92 108 q-155 -131 -342 -131q-155 0 -247.5 91.5t-92.5 246.5zM299 322q0 -51 43 -97q45 -39 121 -39q110 0 205 62q96 62 96 127v71l-29 9l-63 16l-82 6q-19 1 -37 1q-100 0 -170 -42q-46 -29 -65 -52.5t-19 -61.5z" />
<glyph unicode="b" horiz-adv-x="1161" d="M104 57v1203q2 19 23 33t49 18q17 2 34 2q12 -1 22 -1q28 -2 46.5 -16t18.5 -36v-375l8 -4q116 110 293 110q199 0 334 -153q71 -78 104 -161t33 -190q0 -131 -64.5 -248t-175 -188t-237.5 -71q-175 0 -273 110l-22 -6v-27q-12 -45 -59 -57q-19 -5 -37 -6q-27 0 -53 12 q-43 18 -44 51zM301 492q0 -135 77 -213t202 -78t201.5 78t76.5 213t-76.5 213.5t-201.5 78.5q-126 0 -202.5 -78.5t-76.5 -213.5z" />
<glyph unicode="c" horiz-adv-x="1155" d="M94 467q0 226 144 379q143 155 358 155q61 0 124 -15t123 -46.5t106.5 -74.5t75 -104t28.5 -130q0 -23 -31 -45q-32 -20 -70 -22q-2 0 -4 -1q-36 0 -67 27q-33 198 -263 198q-140 0 -224.5 -86.5t-84.5 -232.5q0 -118 87.5 -203.5t203.5 -85.5q111 0 188 53l29 21l49 39 q81 63 111 63q90 0 90 -104q0 -93 -152 -186q-154 -91 -315 -91q-103 0 -196.5 39.5t-161.5 105.5t-108 157t-40 190z" />
<glyph unicode="d" horiz-adv-x="1202" d="M100 477q0 108 33.5 193.5t104.5 165.5q139 157 340 157q83 0 162 -30.5t139 -85.5v383q2 19 22.5 33t48.5 18q17 2 34 2q12 -1 22 -1q28 -2 46.5 -16t18.5 -36v-1203q-7 -27 -29 -42.5t-48.5 -17.5t-52 3.5t-43.5 20.5t-19 34l-25 21v22q-126 -123 -303 -123 q-197 0 -291 113q-82 97 -121 188.5t-39 200.5zM313 479q0 -133 76 -207.5t201 -74.5q122 0 198 88q42 46 61 93.5t19 113.5q0 139 -74.5 215.5t-203.5 76.5q-124 0 -200.5 -82.5t-76.5 -222.5z" />
<glyph unicode="e" horiz-adv-x="1204" d="M86 459q0 247 143 393q143 149 379 149q203 0 348 -139q144 -138 144 -342q0 -69 -38.5 -98t-131.5 -29h-629q27 -78 69 -126q40 -48 88 -68q44 -19 104 -19h10q66 2 127 16t143 42q163 54 163 64q0 1 -1 1q79 -3 88 -92q0 -78 -115 -143q-166 -93 -389 -93 q-228 0 -367 142q-72 76 -103.5 151.5t-31.5 190.5zM311 586h559q-19 99 -91.5 161t-170.5 62q-227 0 -297 -223z" />
<glyph unicode="f" horiz-adv-x="903" d="M49 758q0 104 101 104h124v43q0 203 105 298t332 95q231 0 231 -137q0 -41 -30.5 -71.5t-71.5 -30.5l-193 26q-98 0 -137 -42t-39 -148v-33h311q38 0 72 -24q31 -36 31 -80q0 -47 -29 -77t-72 -30h-303v-598v-5q0 -32 -46 -44q-23 -6 -47 -6q-27 0 -54 8q-51 15 -49 47 v598h-131q-36 0 -76 27q-29 32 -29 80z" />
<glyph unicode="g" horiz-adv-x="1138" d="M109 492q0 208 129 352q130 145 313 145q135 0 260 -96v25q0 33 20 59.5t56 30.5q20 4 36 4q21 0 35 -6q27 -12 35 -38.5t11 -62.5q1 -16 1 -33q0 -21 -2 -42q-1 -10 -1 -16t-0.5 -14.5t-0.5 -15.5v-716q0 -101 -8 -158q-30 -180 -130 -272q-93 -84 -247 -84h-24 q-131 5 -283 75q-55 24 -84.5 60t-29.5 73q0 29 20 68q17 29 50 31h7q30 0 66 -16q41 -18 81.5 -40.5t82.5 -42.5t67 -22q17 -1 32 -1q50 0 87 12q47 16 71.5 38.5t36.5 72t13.5 83t1.5 100.5v27v63q-111 -108 -266 -108q-188 0 -314 141q-64 73 -93 147t-29 177zM305 496 q0 -122 70.5 -187t189.5 -65q112 0 164 55q51 55 72.5 97t21.5 100q0 84 -39 149q-77 133 -219 133q-117 0 -188.5 -77.5t-71.5 -204.5z" />
<glyph unicode="h" horiz-adv-x="1052" d="M129 57v1203q2 19 23 33t49 18q17 2 34 2q11 -1 21 -1q28 -2 47 -16t19 -36v-345q106 80 235 80q160 0 266.5 -109.5t106.5 -291.5v-547q-4 -31 -52 -43q-24 -6 -48 -6t-48 6q-47 12 -47 43v506q0 109 -60.5 168t-150.5 59q-59 0 -114.5 -26.5t-87.5 -71.5v-625 q-12 -45 -59 -57q-19 -5 -37 -6q-27 0 -53 12q-43 18 -44 51z" />
<glyph unicode="i" horiz-adv-x="526" d="M133 1206q0 50 36.5 84.5t88.5 34.5q53 0 90 -35t37 -84t-37 -82.5t-90 -33.5t-89 33.5t-36 82.5zM147 57v895q2 19 23 33t49 18q17 2 34 2q11 -1 21 -1q28 -2 47 -16t19 -36v-895q-12 -45 -59 -57q-19 -5 -37 -6q-27 0 -53 12q-43 18 -44 51z" />
<glyph unicode="j" horiz-adv-x="645" d="M-207 -307q0 41 35 82q39 28 72 28h32q19 0 37 -6l56 -8h32q125 0 176.5 65t51.5 230v864q0 21 43 32q25 7 51 7q19 0 39 -3q47 -9 55 -36v-872q0 -144 -16 -213q-12 -73 -65 -144t-116 -100q-121 -53 -251 -53q-232 0 -232 127zM244 1206q0 50 36.5 84.5t88.5 34.5 q53 0 90 -35t37 -84t-37 -82.5t-90 -33.5t-89 33.5t-36 82.5z" />
<glyph unicode="k" horiz-adv-x="1079" d="M129 57v1203q2 19 23 33t49 18q17 2 34 2q11 -1 21 -1q28 -2 47 -16t19 -36v-654l419 367q41 31 102 31q14 0 30 -2q65 -8 79 -40q7 -18 -8 -38q-198 -164 -231 -197l-119 -117l395 -542q8 -13 8 -23q0 -25 -45 -39q-36 -12 -73 -12q-26 0 -54 6q-39 8 -45 25l-323 456 l-135 -119v-305q-12 -45 -59 -57q-19 -5 -37 -6q-27 0 -53 12q-43 18 -44 51z" />
<glyph unicode="l" horiz-adv-x="460" d="M129 57v1203q2 19 23 33t49 18q17 2 34 2q11 -1 21 -1q28 -2 47 -16t19 -36v-1203q-12 -45 -59 -57q-19 -5 -37 -6q-27 0 -53 12q-43 18 -44 51z" />
<glyph unicode="m" horiz-adv-x="1492" d="M129 57v887q2 19 23 33t49 18q17 2 34 2q11 -1 21 -1q28 -2 47 -16t19 -36v-2q92 53 194 53q147 0 236 -98q52 42 133 70t141 28q155 0 243.5 -107.5t88.5 -293.5v-547q-4 -31 -52 -43q-24 -6 -48 -6t-48 6q-47 12 -47 43v506q0 227 -170 227q-87 0 -159 -53 q14 -57 14 -133v-547q-4 -31 -52 -43q-24 -6 -48 -6t-48 6q-47 12 -47 43v506q0 227 -170 227q-88 0 -161 -57v-666q-12 -45 -59 -57q-19 -5 -37 -6q-27 0 -53 12q-43 18 -44 51z" />
<glyph unicode="n" horiz-adv-x="1062" d="M129 57v887q2 19 23 33t49 18q17 2 34 2q11 -1 21 -1q28 -2 47 -16t19 -36v-29q106 80 235 80q160 0 266.5 -109.5t106.5 -291.5v-547q-4 -31 -52 -43q-24 -6 -48 -6t-48 6q-47 12 -47 43v506q0 109 -60.5 168t-150.5 59q-59 0 -114.5 -26.5t-87.5 -71.5v-625 q-12 -45 -59 -57q-19 -5 -37 -6q-27 0 -53 12q-43 18 -44 51z" />
<glyph unicode="o" horiz-adv-x="1298" d="M133 479q0 237 146 385t376 148q235 0 379 -150q148 -148 148 -383q0 -142 -75.5 -259t-196 -181t-255.5 -64q-145 0 -265 66.5t-188.5 182t-68.5 255.5zM346 479q0 -127 93 -217t216 -90q129 0 220.5 92t91.5 215q0 139 -89.5 238.5t-222.5 99.5q-137 0 -223 -101.5 t-86 -236.5z" />
<glyph unicode="p" horiz-adv-x="1202" d="M129 -393v1325q2 19 23 33t49 18t55.5 1.5t46.5 -16.5t19 -36v-2h8v-47q126 114 288 114q204 0 340 -151t136 -379q0 -107 -32 -187.5t-99 -154.5q-131 -143 -328 -143q-182 0 -305 114l-8 -489q-12 -45 -59 -57q-19 -6 -37 -6q-27 0 -53 12q-43 18 -44 51zM326 475 q0 -132 76.5 -209.5t199.5 -77.5q122 0 199 86q42 47 61 92.5t19 108.5q0 134 -78 220.5t-201 86.5t-199.5 -85t-76.5 -222z" />
<glyph unicode="q" horiz-adv-x="1191" d="M92 467q0 229 135 379q136 151 340 151q163 0 289 -114v47h8v2q0 22 19 36t46.5 16.5t55.5 -1.5t49 -18t23 -33v-1325q-1 -33 -44 -51q-26 -12 -53 -12q-18 0 -37 6q-47 12 -59 57l-8 489q-123 -114 -305 -114q-197 0 -328 143q-67 74 -99 154.5t-32 187.5zM305 475 q0 -63 19 -108.5t61 -92.5q77 -86 199 -86q123 0 199.5 77.5t76.5 209.5q0 137 -76.5 222t-199.5 85t-201 -86.5t-78 -220.5z" />
<glyph unicode="r" horiz-adv-x="991" d="M147 57v895q2 19 23 33t49 18q17 2 34 2q11 -1 21 -1q28 -2 47 -16t19 -36v-153q169 202 377 202q91 0 153 -45t62 -114q0 -50 -35.5 -90.5t-79.5 -40.5q-33 0 -100 34q-21 11 -35.5 20.5t-19.5 13t-7 3.5q-74 0 -180 -86q-24 -18 -135 -143v-496q-12 -45 -59 -57 q-19 -5 -37 -6q-27 0 -53 12q-43 18 -44 51z" />
<glyph unicode="s" horiz-adv-x="1095" d="M111 266q0 47 67 47q26 0 52 -13t36 -36q32 -129 312 -129q76 0 155 58q41 27 41 106q0 22 -8.5 36.5t-21 23t-39.5 12.5t-52.5 5t-70.5 1h-52q-417 0 -417 315q0 149 107 233.5t292 84.5q83 0 148 -10.5t126.5 -36.5t97.5 -79q40 -59 40 -134q0 -38 -41 -60 q-28 -16 -57 -17q-16 0 -32 5q-46 13 -49 65q-3 43 -83 67q-59 18 -130 17q-26 0 -53 -2q-73 0 -123.5 -36t-50.5 -89q0 -73 78 -88q35 -9 195 -12q199 -3 321 -96q43 -33 61.5 -73.5t18.5 -117.5q0 -153 -103 -245.5t-274 -92.5q-118 0 -149 2l-93 19q-91 24 -152 74 t-82 100q-16 39 -16 76q0 10 1 20z" />
<glyph unicode="t" horiz-adv-x="1148" d="M55 846q0 106 154 106h84v246q0 115 96 115q54 0 76 -38t22 -136v-187h355q112 0 112 -102q0 -40 -26 -76q-29 -26 -78 -26h-363v-306q0 -126 15 -174.5t57 -66.5l41 -17h11q104 0 227 54l100 41l61 18q82 0 91 -98q0 -44 -23 -74q-57 -66 -272 -127q-65 -18 -142 -18 q-295 0 -350 266q-10 55 -10 162v340h-135q-54 0 -75.5 21t-27.5 77z" />
<glyph unicode="u" horiz-adv-x="1052" d="M106 373v563q10 38 36 48q20 8 54 8q10 0 21 -1q42 -3 60 -23.5t24 -82.5v-475q0 -122 43 -175t143 -53q97 0 163.5 65t66.5 163v518q11 64 80 64q10 0 22 -1h8q42 0 62 -28q20 -31 20 -97v-665l6 -164q-3 -40 -94 -40q-12 0 -26 1h-5q-58 0 -73 68v22 q-147 -111 -273 -111q-338 0 -338 396z" />
<glyph unicode="v" horiz-adv-x="1173" d="M72 956q2 10 6 14t8 4.5t12 2t15 4.5q32 15 74 15q57 0 132 -27l267 -738l303 750q21 20 85 20q12 -1 25 -1q85 -4 99 -27l-377 -903q-47 -109 -139 -109q-50 0 -76 23q-25 16 -55 86z" />
<glyph unicode="w" horiz-adv-x="1355" d="M84 950q-3 29 51 41q28 6 55 6q27 1 54 -5q55 -12 55 -42l156 -661l114 393q24 90 119 90t125 -113l107 -370l149 653q19 40 71 52q23 6 45 5q27 -1 51 -9q37 -14 37 -40q0 -4 -1 -8l-254 -874q-37 -88 -123 -88q-40 0 -59.5 23.5t-38.5 88.5l-113 451l-115 -471 q-27 -92 -100 -92q-85 0 -125 110z" />
<glyph unicode="x" horiz-adv-x="1163" d="M84 39l365 481l-343 416q14 32 43.5 46.5t88.5 14.5h92l258 -360l215 344q15 20 49 25q10 1 20 1q27 0 58 -9q43 -13 76 -42l8 -10l-297 -414l368 -444q-9 -88 -155 -88h-12l-340 418l-275 -393q-11 -6 -20.5 -10.5t-20.5 -7t-17 -4.5t-19.5 -2.5t-18 -0.5h-22.5h-23 q-9 -2 -17 -2q-26 0 -49 14q-16 8 -16 18q0 4 4 9z" />
<glyph unicode="y" horiz-adv-x="1142" d="M85 913q0 41 44 68q32 18 57 25q12 4 24 4t22 -4q21 -7 36 -18t33 -41.5t30 -56.5t34 -77l219 -498l225 498q9 15 18.5 35t15.5 35t15 33t17.5 29t21.5 23.5t27.5 16.5t36 7.5t47.5 -3.5q30 1 42 -17q11 -15 11 -37q0 -5 -1 -10q-3 -28 -14.5 -57.5t-27.5 -52.5 l-567 -1243h4q-34 -46 -117 -46h-7q-66 1 -88 24q-10 11 -1 22l229 504l-338 737q-48 54 -48 100z" />
<glyph unicode="z" horiz-adv-x="1042" d="M94 121q0 63 76 145l498 531h-369q-8 0 -31.5 -0.5t-39 -0.5t-37.5 4.5t-36.5 13.5t-26 27.5t-13.5 45.5q0 53 38 77.5t117 24.5h504q79 0 118.5 -30t39.5 -95q0 -70 -92 -170l-478 -493h390q166 -5 180 -88q0 -47 -29 -84l-51 -25l-53 -4h-572q-133 0 -133 121z" />
<glyph unicode="{" horiz-adv-x="696" d="M170 571l25 7q1 1 8 6.5t12 7.5q27 37 44.5 78t25.5 73.5t11 77.5t2 72t-3.5 76.5t-3.5 72.5q-3 60 16 116.5t62 99t102 53.5q81 10 108 -8q14 -10 -4 -25q-58 -47 -84.5 -132t-9.5 -159q10 -45 13 -100t-4.5 -121t-42 -120t-93.5 -75q81 -54 119.5 -135.5t37 -161 t-29.5 -155.5q-27 -72 -35 -146.5t14.5 -151t82.5 -118.5q5 -4 11.5 -11t11.5 -16.5t1.5 -17t-18 -11t-47.5 0.5q-93 13 -144 55q-58 45 -81 121t-15 150.5t35 144.5q28 76 29.5 155.5t-37 161t-119.5 135.5z" />
<glyph unicode="|" horiz-adv-x="581" d="M190 -373v1686q2 19 23 33t49 18t55.5 1.5t46.5 -16.5t19 -36v-1686q-12 -45 -59 -57.5t-90 6t-44 51.5z" />
<glyph unicode="}" horiz-adv-x="665" d="M96 1278q-29 24 21 33q35 6 84 0q59 -11 102 -53.5t62 -99t16 -116.5q-1 -23 -3.5 -72.5t-3.5 -76.5t2 -72t11 -77.5t25.5 -73.5t44.5 -78q5 -2 12 -7.5t8 -6.5l25 -7q-81 -54 -119.5 -135.5t-37 -161t29.5 -155.5q27 -70 34.5 -144.5t-15.5 -150.5t-81 -121 q-51 -43 -143 -55q-33 -4 -47.5 -0.5t-18 11t1.5 17t11.5 16.5t11.5 11q60 42 82.5 118.5t14 151t-35.5 146.5q-28 76 -29.5 155.5t37 161t119.5 135.5q-59 21 -93.5 75t-42 120t-4.5 121t13 100q17 74 -9.5 159t-84.5 132z" />
<glyph unicode="~" d="M131 653q0 62 90 115q91 55 199 55q11 0 90 -20q110 -29 225 -47l41 -8q23 0 41 -3q42 0 205 66q76 0 76 -78q0 -60 -94 -115q-91 -55 -195 -55q-19 0 -197 39q-175 39 -196 39q-44 0 -101 -23l-75 -32l-35 -13q-74 0 -74 80z" />
<glyph unicode="&#xa1;" horiz-adv-x="768" d="M240 815q0 78 47 127t121 49t120.5 -48.5t46.5 -127.5t-45.5 -125.5t-121.5 -46.5q-70 0 -119 49.5t-49 122.5zM291 -182l31 626q1 44 28.5 73.5t65.5 29.5t67 -29q21 -35 27 -74l31 -637q2 -69 -33 -114t-92 -45q-54 0 -89.5 45t-35.5 114v11z" />
<glyph unicode="&#xa2;" d="M72 547q0 173 64.5 300.5t187.5 196.5q123 66 256 66q44 0 69 -2l41 147l47 158l183 -51l-89 -299q102 -45 152.5 -118t75.5 -191l-250 -37q-22 81 -45 125l-197 -674q96 -12 165.5 59.5t88.5 204.5l254 -29q-35 -190 -168.5 -302.5t-318.5 -112.5q-36 0 -74 6l-96 -338 l-182 51l96 338q-124 61 -192 189.5t-68 312.5zM332 555q0 -206 63 -295l205 676h-10q-115 5 -190 -101t-68 -280z" />
<glyph unicode="&#xa3;" horiz-adv-x="1161" d="M103.5 633q-8.5 30 0 61.5t29.5 38.5h119q-43 168 -43 236q0 159 121 262q119 104 297 104q263 0 389 -225l12 -23q8 -40 -61.5 -62.5t-96.5 -0.5l-14 25q-64 110 -217 110q-256 0 -256 -192q0 -82 47 -234h418q29 -2 37.5 -34.5t-3.5 -65t-34 -33.5h-381 q3 -17 8.5 -45.5t7 -37t3 -23.5t1.5 -31q0 -58 -15.5 -102.5t-57.5 -131.5q105 31 133 31q58 0 139 -37q96 -41 137 -41q68 0 158 90q23 19 53.5 -5.5t38.5 -61.5t-16 -66q-163 -129 -269 -129q-74 0 -184 45q-82 29 -115 29q-91 0 -266 -96l-84 114q95 103 136.5 182.5 t41.5 178.5q0 15 -2 29.5t-5 25.5t-9.5 35.5t-11.5 46.5h-156q-21 3 -29.5 33z" />
<glyph unicode="&#xa4;" horiz-adv-x="1335" d="M72 344l149 143h-2q-72 113 -72 238t72 238h2l-149 143l161 160l152 -150q100 60 242 60q143 0 243 -60l152 150l160 -160l-148 -141h2q74 -118 74 -240t-74 -240h-2l76 -71l72 -70l-160 -162l-152 150q-99 -58 -243 -58q-138 0 -242 58l-47 -47l-105 -103zM391 725 q0 -109 70 -176q77 -74 166 -74q90 0 164 74q69 66 69 176t-69 176q-74 74 -164 74q-89 0 -166 -74q-70 -67 -70 -176z" />
<glyph unicode="&#xa5;" horiz-adv-x="1138" d="M78 1249q-12 31 38 46q60 19 126 -3q42 -15 63 -43l277 -526l274 526q19 33 72.5 46.5t97 0t37.5 -46.5l-348 -657h172q34 0 57 -21.5t23 -52.5q0 -29 -23 -49t-57 -20h-219v-101h219q80 0 80 -72q0 -31 -23 -51t-57 -20h-219v-166q-14 -26 -61.5 -35.5t-91 1t-46.5 34.5 v166h-242q-32 0 -56 20.5t-24 50.5q0 72 80 72h242v101h-242q-31 0 -61 18q-19 25 -19 51q0 74 80 74h203z" />
<glyph unicode="&#xa6;" horiz-adv-x="454" d="M72 338h229v-764h-229v764zM72 621v763h229v-763h-229z" />
<glyph unicode="&#xa7;" horiz-adv-x="1163" d="M72 629q0 85 51.5 152t146.5 104h-6q-108 114 -108 211q0 112 100 204q95 89 266 89q184 0 288 -84.5t126 -247.5l-242 -27q-18 109 -56 153t-103 44q-61 0 -103.5 -38t-42.5 -87q0 -48 23 -74q45 -53 264 -188q152 -89 196 -125q138 -115 138 -242q0 -102 -74 -182 q-38 -38 -121 -72q133 -115 133 -244q4 -129 -113 -219t-280 -84q-187 0 -297.5 90t-132.5 254l233 33q26 -117 72 -165t125 -48q72 0 115 39.5t43 97.5q0 43 -25 74q-70 73 -295 209q-152 91 -190 127q-63 52 -94 109q-37 64 -37 137zM291 647q0 -60 43 -106 q20 -27 166 -119q108 -61 192 -119q45 26 67.5 63.5t22.5 75.5q0 52 -37 97q-47 56 -194 143l-51 33q-110 71 -119 78q-90 -59 -90 -146z" />
<glyph unicode="&#xa8;" horiz-adv-x="860" d="M72 1171v234h262v-234h-262zM444 1171v234h263v-234h-263z" />
<glyph unicode="&#xa9;" horiz-adv-x="1603" d="M72 735q0 173 92 328q93 157 258 242q156 84 340 84q182 0 338 -84q164 -84 258 -242q92 -165 92 -328q0 -159 -90 -323q-83 -145 -256 -242q-162 -86 -342 -86q-189 0 -344 86q-166 90 -256 242q-90 156 -90 323zM254 735q0 -132 70.5 -255.5t185.5 -190.5h-2 q139 -68 254 -68q122 0 243 72t195 186q68 136 68 256q0 130 -70 258q-70 130 -188 191h2q-134 67 -250 67q-125 0 -246 -70.5t-194 -187.5h2q-70 -130 -70 -258zM383 733q0 177 105 277t282 100q128 0 214.5 -59t119.5 -164l-166 -41q-26 67 -71 102t-101 35 q-86 0 -138.5 -66t-52.5 -186q0 -119 49.5 -181.5t131.5 -62.5q63 0 112.5 47t71.5 128l178 -54q-28 -114 -124.5 -184t-229.5 -70q-172 0 -276.5 102t-104.5 277z" />
<glyph unicode="&#xaa;" horiz-adv-x="985" d="M72 866q0 73 43.5 126t128.5 77q46 14 102 23q144 19 213 38q-1 69 -31.5 94t-89.5 25q-115 0 -131 -131l-211 49q14 105 101.5 167.5t242.5 62.5q173 0 256 -66q80 -77 80 -186v-295q0 -130 55 -197h-229q-16 29 -22 52q-104 -70 -226 -70q-130 0 -206 63.5t-76 167.5z M295 866q0 -36 24.5 -58t67.5 -22q57 0 102 32t60 79q5 9 8 76q-86 -15 -149 -23q-73 -9 -99 -35q-14 -11 -14 -49z" />
<glyph unicode="&#xab;" horiz-adv-x="1169" d="M72 528l331 461h222l-271 -461l133 -231q26 -46 74 -126t62 -105h-220zM467 528l324 461h225l-275 -461l101 -170q134 -223 174 -292h-225z" />
<glyph unicode="&#xac;" horiz-adv-x="1265" d="M72 844v194h1040v-622h-244v428h-796z" />
<glyph unicode="&#xad;" horiz-adv-x="823" d="M72 444v172h598v-172h-598z" />
<glyph unicode="&#xae;" horiz-adv-x="1611" d="M72 735q0 168 92 330q89 153 260 242q155 86 342 86t342 -86q164 -84 258 -242q92 -165 92 -330q0 -171 -90 -327q-86 -151 -258 -242q-155 -86 -344 -86q-191 0 -346 86q-165 88 -258 242q-90 156 -90 327zM254 735q0 -134 70.5 -257.5t187.5 -192.5h-2q139 -68 256 -68 q126 0 250 72.5t196 187.5q70 130 70 258q0 132 -70 260q-20 37 -57.5 78.5t-93 84t-134 70t-161.5 27.5q-123 0 -246 -72t-198 -188h2q-70 -130 -70 -260zM440 365v722h281q131 0 196.5 -21.5t100.5 -70.5q41 -57 41 -110q0 -68 -49 -125t-127 -82q12 -3 24 -12 q28 -28 64 -82t77.5 -122t61.5 -97h-207l-67 116q-63 118 -109 158q-27 20 -68 20h-30v-294h-189zM629 784h100q135 0 135 90q0 61 -43 80q-41 9 -100 9h-92v-179z" />
<glyph unicode="&#xb0;" horiz-adv-x="854" d="M72 1112q0 117 92 203q87 84 223 84q137 0 221 -84q92 -86 92 -203q0 -113 -92 -205q-84 -84 -221 -84q-135 0 -223 82q-92 92 -92 207zM256 1112q0 -61 38.5 -105t92.5 -44t92.5 44t38.5 105t-38.5 104.5t-92.5 43.5t-92.5 -43.5t-38.5 -104.5z" />
<glyph unicode="&#xb1;" horiz-adv-x="1267" d="M72 -2v197h1042v-197h-1042zM72 647v193h399v391h244v-391h399v-193h-399v-395h-244v395h-399z" />
<glyph unicode="&#xb2;" horiz-adv-x="923" d="M72 623q7 90 68 158t202 169q141 100 168 127t27 72q0 42 -26.5 67t-76.5 25q-47 0 -72.5 -23.5t-46.5 -91.5l-227 23q36 124 118.5 183t231.5 59q164 0 246 -60t82 -157q0 -83 -66 -164q-47 -56 -211 -172l-45 -31q-11 -8 -41 -33h367v-151h-698z" />
<glyph unicode="&#xb3;" horiz-adv-x="915" d="M72 848l217 22q29 -82 53 -94q30 -20 72 -20q52 0 85 32t33 82q0 91 -120 91q-7 0 -25 -3h-72l29 140q76 0 115 23t39 61q0 30 -21.5 49.5t-60.5 19.5q-42 0 -68 -22t-49 -80l-211 31q46 119 117.5 166t210.5 47q156 0 233.5 -54.5t77.5 -144.5q0 -48 -29.5 -89 t-85.5 -67q70 -31 110 -80.5t40 -105.5q0 -101 -91.5 -171.5t-248.5 -70.5q-302 0 -350 238z" />
<glyph unicode="&#xb4;" horiz-adv-x="688" d="M72 1098l147 305h316l-246 -305h-217z" />
<glyph unicode="&#xb5;" horiz-adv-x="1157" d="M72 -399v1470h252v-457q0 -230 22 -307q33 -78 72 -102q58 -39 114 -39q64 0 119 40.5t80 102.5q23 67 23 301v461h250v-1071h-236v49q-30 -22 -49 -31q-73 -43 -178 -43q-103 0 -166 35q-31 14 -51 31v-440h-252z" />
<glyph unicode="&#xb6;" horiz-adv-x="1316" d="M72 993q0 183 121.5 288t349.5 105h620v-188h-133v-1526h-229v1526h-133v-1526h-224v940q-181 9 -276.5 112t-95.5 269z" />
<glyph unicode="&#xb7;" horiz-adv-x="503" d="M72 600v234h278v-234h-278z" />
<glyph unicode="&#xb8;" horiz-adv-x="735" d="M72 -414l16 140q2 0 23 -1t26 -1h25q37 -3 55 -3q70 0 109 25q14 11 14 33q0 16 -9.5 25t-47 16.5t-107.5 9.5l64 203h209l-35 -105q79 -20 123.5 -63t44.5 -96q0 -82 -86.5 -141.5t-239.5 -59.5q-85 0 -184 18z" />
<glyph unicode="&#xb9;" horiz-adv-x="667" d="M72 1047v155q67 20 145 75t129 118h168v-768h-217v503q-85 -45 -225 -83z" />
<glyph unicode="&#xba;" horiz-adv-x="954" d="M72 1008q0 181 99.5 285t264.5 104t265 -103.5t100 -281.5q0 -175 -101 -279t-262 -104q-165 0 -265.5 102t-100.5 277zM293 1012q0 -109 39 -164t104 -55q66 0 105 55.5t39 169.5q0 106 -39 160.5t-105 54.5t-104.5 -54.5t-38.5 -166.5z" />
<glyph unicode="&#xbb;" horiz-adv-x="1169" d="M72 66l274 462l-113 189q-29 47 -83 140t-78 132h225l324 -461l-324 -462h-225zM463 66l270 462l-49 84q-207 352 -221 377h221l332 -461l-332 -462h-221z" />
<glyph unicode="&#xbc;" horiz-adv-x="1695" d="M137 1208q0 42 66 54l254 49q75 3 75 -49v-584l5 -60q-3 -14 -35 -20q-2 -5 -47 -4.5t-52 0.5q-18 -1 -31.5 5.5t-13.5 14.5q0 2 4 28t5 44v496l-144 -27h-12q-31 0 -52.5 15t-21.5 38zM467 70l2 28l8 27l447 1089q20 52 47 86q30 23 57 23q32 0 66 -27q24 -39 26 -71 l-4 -29l-8 -25l-446 -1093q-47 -109 -103 -109q-29 0 -65 31q-21 30 -27 70zM864 213v39q0 24 33 63l334 398q14 14 26 20l29 8l27 -2l4 -2l76 -6q39 -3 45 -41v-411h22q54 3 77.5 -18t6.5 -68q-18 -27 -59 -27h-47v-139q2 -3 0 -7.5t-11.5 -8t-25.5 -3.5q-8 -1 -23.5 -3 t-28 -3t-22.5 0q-14 0 -23 1.5t-14 2t-7 4t-3 4t-0.5 6.5t0.5 7v139h-352q-55 0 -64 47zM1032 279h248v309z" />
<glyph unicode="&#xbd;" horiz-adv-x="1718" d="M137 1208q0 42 66 54l254 49q75 3 75 -49v-584l5 -60q-3 -14 -35 -20q-2 -5 -47 -4.5t-52 0.5q-18 -1 -31.5 5.5t-13.5 14.5q0 2 4 28t5 44v496l-144 -27h-12q-31 0 -52.5 15t-21.5 38zM467 70l2 28l8 27l447 1089q20 52 47 86q30 23 57 23q32 0 66 -27q24 -39 26 -71 l-4 -29l-8 -25l-446 -1093q-47 -109 -103 -109q-29 0 -65 31q-21 30 -27 70zM950 61q0 33 131 140l19 14q93 73 164 133q112 93 112 150q0 50 -35 82t-92 32l-37 -2q-21 -4 -43 -14l-55 -41q-55 -43 -70 -43q-59 0 -59 70v18l4 14l8 13q57 44 105 57q86 29 149 29 q117 0 195 -60t78 -149q0 -80 -117 -191q-78 -71 -197 -161l-51 -39h283h11q27 0 40 -0.5t32 -3.5t27 -9.5t13 -19t2 -31.5q-6 -47 -58 -47h-473q-39 0 -63 12q-23 23 -23 47z" />
<glyph unicode="&#xbe;" horiz-adv-x="1716" d="M143 694q0 45 60 54q9 -3 71 -31q64 -25 111 -25q63 0 102 31.5t39 85.5q0 87 -100 111l-39 4q-63 0 -63 51q0 48 59 51l35 4q37 5 61.5 29.5t24.5 60.5q0 43 -31.5 73t-75.5 30q-25 0 -94 -27l-67 -31q-46 0 -52 47q0 43 41 64q78 34 99 41q44 8 82 8q97 0 159 -53 q64 -55 64 -137q0 -104 -92 -148q116 -52 116 -178q0 -101 -75 -164q-50 -44 -97 -57q-40 -8 -98 -8q-97 0 -168 36q-72 38 -72 78zM487 70l2 28l9 27l446 1089q20 52 47 86q30 23 58 23q31 0 65 -27q25 -41 27 -71l-4 -29l-9 -25l-446 -1093q-47 -109 -102 -109 q-30 0 -66 31q-21 30 -27 70zM885 213v39q0 24 33 63l333 398q13 13 27 20l29 8l26 -2l4 -2l76 -6q39 -3 45 -41v-411h23q54 3 77.5 -18t6.5 -68q-18 -27 -60 -27h-47v-139q2 -3 0 -7.5t-11.5 -8t-25.5 -3.5q-9 -1 -24 -3t-27 -3t-22 0q-10 0 -17.5 1t-13 1.5t-9 2t-5.5 2.5 t-2.5 3.5t-0.5 4v5v5.5v139h-352q-54 0 -63 47zM1053 279h247v309z" />
<glyph unicode="&#xbf;" horiz-adv-x="1093" d="M111 -59q1 26 9.5 48t17.5 36t30 31.5t32.5 25.5t41 25.5t41.5 25.5q130 72 172.5 125t33.5 119q-3 27 41.5 39.5t91.5 2.5t52 -38q4 -16 4.5 -21.5t-1 -14t-1.5 -21.5q0 -82 -43 -125q-80 -80 -193 -148q-139 -82 -139 -137q0 -35 17 -71t47 -52q54 -31 139 -31 q70 0 144.5 24.5t107.5 70.5q54 51 71 51q37 0 70 -68q16 -39 0.5 -77t-54 -72.5t-80.5 -59.5t-79 -37q-46 -18 -152 -18q-206 0 -329 117q-56 53 -76.5 110t-15.5 140zM446 737q0 73 45.5 120.5t114.5 47.5t113.5 -46.5t44.5 -121.5q0 -73 -44.5 -120.5t-113.5 -47.5 q-71 0 -115.5 46t-44.5 122z" />
<glyph unicode="&#xc0;" d="M76 59l354 1041q30 106 79 159t118 46q61 0 86 -25q23 -16 41 -63l417 -1147q1 -47 -47.5 -64.5t-101 1.5t-61.5 63l-121 329h-455l-109 -340q-36 -61 -112 -62q-57 -1 -82 27q-15 16 -6 35zM432.5 1809q6.5 23 34.5 28h145q45 -3 60 -57l121 -305l6 -25q1 -28 -49.5 -50 t-77.5 -9q-16 11 -23 28l-213 350q-10 17 -3.5 40zM451 592h321l-168 463z" />
<glyph unicode="&#xc1;" d="M76 59l354 1041q30 106 79 159t118 46q61 0 86 -25q23 -16 41 -63l417 -1147q1 -47 -47.5 -64.5t-101 1.5t-61.5 63l-121 329h-455l-109 -340q-36 -61 -112 -62q-57 -1 -82 27q-15 16 -6 35zM428 1450l6 25l121 305q15 54 59 57h146q28 -5 34.5 -28t-3.5 -40l-213 -350 q-7 -17 -23 -28q-27 -13 -77.5 9t-49.5 50zM451 592h321l-168 463z" />
<glyph unicode="&#xc2;" d="M76 59l354 1041q30 106 79 159t118 46q61 0 86 -25q23 -16 41 -63l417 -1147q1 -47 -47.5 -64.5t-101 1.5t-61.5 63l-121 329h-455l-109 -340q-36 -61 -112 -62q-57 -1 -82 27q-15 16 -6 35zM248 1456q-4 29 16 51l268 242q64 40 132 0l268 -242q21 -24 18 -47 q-7 -36 -18.5 -53.5t-38.5 -20.5l-33 15l-262 178l-274 -190q-34 0 -51 16t-25 51zM451 592h321l-168 463z" />
<glyph unicode="&#xc3;" d="M76 59l354 1041q30 106 79 159t118 46q61 0 86 -25q23 -16 41 -63l417 -1147q1 -47 -47.5 -64.5t-101 1.5t-61.5 63l-121 329h-455l-109 -340q-36 -61 -112 -62q-57 -1 -82 27q-15 16 -6 35zM131 1473q0 61 90 114q91 55 199 55q11 0 90 -20q110 -29 225 -47l41 -8 q29 0 41 -2q45 0 205 65q76 0 76 -78q0 -59 -94 -114q-92 -56 -195 -56q-19 0 -197 39q-175 39 -196 39q-46 0 -101 -22l-75 -33l-35 -12q-74 0 -74 80zM451 592h321l-168 463z" />
<glyph unicode="&#xc4;" d="M76 59l354 1041q30 106 79 159t118 46q61 0 86 -25q23 -16 41 -63l417 -1147q1 -47 -47.5 -64.5t-101 1.5t-61.5 63l-121 329h-455l-109 -340q-36 -61 -112 -62q-57 -1 -82 27q-15 16 -6 35zM289 1518q0 59 36 96t85 37t84.5 -37t35.5 -96t-35.5 -95.5t-84.5 -36.5 t-85 36.5t-36 95.5zM451 592h321l-168 463zM678 1518q0 59 36 96t85 37t85 -37t36 -96t-36 -95.5t-85 -36.5t-85 36.5t-36 95.5z" />
<glyph unicode="&#xc5;" d="M76 59l354 1041q21 74 51 123q-88 36 -141 108.5t-53 161.5q0 123 96.5 210t232.5 87q137 0 233.5 -87t96.5 -210q0 -90 -53.5 -162t-142.5 -108l4 -6l417 -1147q1 -47 -47.5 -64.5t-101 1.5t-61.5 63l-121 329h-455l-109 -340q-36 -61 -112 -62q-57 -1 -82 27 q-15 16 -6 35zM424 1493q0 -71 56.5 -121.5t135.5 -50.5t136 50.5t57 121.5t-57 122.5t-136 51.5t-135.5 -51.5t-56.5 -122.5zM451 592h321l-168 463z" />
<glyph unicode="&#xc6;" horiz-adv-x="1869" d="M76 59l354 1041q30 106 79 159t118 46q61 0 86 -25q23 -16 41 -63l196 -541v424q-12 199 90 205h658q47 0 71.5 -29t20.5 -82q-4 -56 -40.5 -71.5t-141.5 -22.5h-459v-303h385q31 -10 46 -39t12.5 -59t-18.5 -54.5t-40 -28.5h-385v-415h459q188 9 182 -95 q0 -49 -25 -77.5t-67 -28.5h-594q-26 -3 -53 0h-13q-26 3 -48 22.5t-29 47.5l-121 329h-455l-109 -340q-36 -61 -112 -62q-57 -1 -82 27q-15 16 -6 35zM451 592h321l-168 463z" />
<glyph unicode="&#xc7;" horiz-adv-x="1191" d="M84 651q0 295 162 490q163 196 409 196q92 0 254 -57q151 -96 149 -200q-1 -60 -49 -92q-40 -27 -69 -7q-9 6 -14 16q-3 5 -11 21.5t-13 24.5t-14.5 20.5t-23 22.5t-30.5 18q-79 39 -179 39q-159 0 -254 -129q-116 -155 -116 -350q0 -185 116 -347q95 -133 256 -133 q33 0 95 15l63 22l55 31q44 36 142 90q43 0 71.5 -29t28.5 -73q0 -43 -43 -95q-77 -86 -235 -143q-88 -33 -183 -33q-76 0 -153 23l-17 -35q-11 -22 3.5 -36t49 -27.5t75.5 -30.5t88.5 -55t80.5 -91q49 -84 7.5 -145t-132.5 -96.5t-183 -50t-144 -7.5q-61 9 -92.5 42 t-22.5 70.5t55 57.5q25 11 76.5 12t103 -1t100 -0.5t78 18t27.5 49.5q-3 41 -40.5 74t-82 50t-96.5 37.5t-72 35.5q-46 35 31 174q-83 49 -145 125q-162 192 -162 489z" />
<glyph unicode="&#xc8;" horiz-adv-x="1050" d="M131 201v899q-12 199 90 205h658q47 0 71.5 -29t20.5 -82q-4 -56 -41 -71.5t-142 -22.5h-458v-303h385q31 -10 46 -39t12.5 -59t-18.5 -54.5t-40 -28.5h-385v-415h458q189 9 183 -95q0 -49 -25 -77.5t-67 -28.5h-660q-91 12 -88 201zM432.5 1809q6.5 23 34.5 28h145 q45 -3 60 -57l121 -305l6 -25q1 -28 -49.5 -50t-77.5 -9q-16 11 -23 28l-213 350q-10 17 -3.5 40z" />
<glyph unicode="&#xc9;" horiz-adv-x="1050" d="M131 201v899q-12 199 90 205h658q47 0 71.5 -29t20.5 -82q-4 -56 -41 -71.5t-142 -22.5h-458v-303h385q31 -10 46 -39t12.5 -59t-18.5 -54.5t-40 -28.5h-385v-415h458q189 9 183 -95q0 -49 -25 -77.5t-67 -28.5h-660q-91 12 -88 201zM428 1450l6 25l121 305q15 54 59 57 h146q28 -5 34.5 -28t-3.5 -40l-213 -350q-7 -17 -23 -28q-27 -13 -77.5 9t-49.5 50z" />
<glyph unicode="&#xca;" horiz-adv-x="1050" d="M131 201v899q-12 199 90 205h658q47 0 71.5 -29t20.5 -82q-4 -56 -41 -71.5t-142 -22.5h-458v-303h385q31 -10 46 -39t12.5 -59t-18.5 -54.5t-40 -28.5h-385v-415h458q189 9 183 -95q0 -49 -25 -77.5t-67 -28.5h-660q-91 12 -88 201zM186 1456q-3 28 17 51l268 242 q63 40 131 0l268 -242q22 -25 19 -47q-7 -36 -19 -53.5t-39 -20.5l-32 15l-262 178l-275 -190q-34 0 -51 16t-25 51z" />
<glyph unicode="&#xcb;" horiz-adv-x="1050" d="M131 201v899q-12 199 90 205h658q47 0 71.5 -29t20.5 -82q-4 -56 -41 -71.5t-142 -22.5h-458v-303h385q31 -10 46 -39t12.5 -59t-18.5 -54.5t-40 -28.5h-385v-415h458q189 9 183 -95q0 -49 -25 -77.5t-67 -28.5h-660q-91 12 -88 201zM207 1518q0 59 36 96t85 37t85 -37 t36 -96t-36 -95.5t-85 -36.5t-85 36.5t-36 95.5zM596 1518q0 59 36 96t85 37t85 -37t36 -96t-36 -95.5t-85 -36.5t-85 36.5t-36 95.5z" />
<glyph unicode="&#xcc;" horiz-adv-x="446" d="M23 1809q6 23 34 28h146q44 -3 59 -57l121 -305l6 -25q1 -28 -49.5 -50t-77.5 -9q-15 10 -22 28l-213 350q-10 17 -4 40zM129 57v1203q2 19 23 33t49 18t55.5 1.5t46.5 -16.5t19 -36v-1203q-12 -45 -59 -57.5t-90 6t-44 51.5z" />
<glyph unicode="&#xcd;" horiz-adv-x="446" d="M80 1450l6 25l121 305q15 54 59 57h146q28 -5 34 -28t-4 -40l-213 -350q-7 -18 -22 -28q-27 -13 -77.5 9t-49.5 50zM129 57v1203q2 19 23 33t49 18t55.5 1.5t46.5 -16.5t19 -36v-1203q-12 -45 -59 -57.5t-90 6t-44 51.5z" />
<glyph unicode="&#xce;" horiz-adv-x="446" d="M-131 1456q-4 29 16 51l269 242q63 40 131 0l268 -242q21 -24 18 -47q-7 -36 -18.5 -53.5t-38.5 -20.5l-33 15l-262 178l-274 -190q-34 0 -51 16t-25 51zM129 57v1203q2 19 23 33t49 18t55.5 1.5t46.5 -16.5t19 -36v-1203q-12 -45 -59 -57.5t-90 6t-44 51.5z" />
<glyph unicode="&#xcf;" horiz-adv-x="446" d="M-80 1518q0 59 36 96t85 37t85 -37t36 -96t-36 -95.5t-85 -36.5t-85 36.5t-36 95.5zM129 57v1203q2 19 23 33t49 18t55.5 1.5t46.5 -16.5t19 -36v-1203q-12 -45 -59 -57.5t-90 6t-44 51.5zM309 1518q0 59 36 96t85 37t85 -37t36 -96t-36 -95.5t-85 -36.5t-85 36.5 t-36 95.5z" />
<glyph unicode="&#xd0;" horiz-adv-x="1165" d="M51 600v82q0 40 35 49h70v369q-13 179 80 205h303q253 0 397 -179q147 -175 147 -475q0 -223 -88 -381q-29 -54 -90 -120q-141 -166 -444 -154l-133 4q-59 13 -96 33t-50.5 44t-18 44.5t-4.5 45t-3 34.5v346h-66q-8 0 -33 14zM352 201l37 -4h57q229 0 331 105.5 t102 348.5q0 238 -103 344q-71 74 -147 95q-49 14 -189 14h-67l-21 -2v-371h197q39 0 39 -49v-82q0 -20 -10 -37q-13 -13 -29 -16h-197v-346z" />
<glyph unicode="&#xd1;" horiz-adv-x="1210" d="M129 57v1203q8 32 50 48t85.5 7t52.5 -41q7 -8 570 -879v865q2 19 22.5 33t48.5 18t55.5 1.5t46.5 -16.5t19 -36v-1203q-12 -44 -55.5 -54.5t-85.5 7.5t-51 47l-23 37l-542 824v-861q-12 -45 -59 -57.5t-90 6t-44 51.5zM131 1473q0 61 90 114q91 55 199 55q11 0 90 -20 q110 -29 225 -47l41 -8q29 0 41 -2q45 0 205 65q76 0 76 -78q0 -59 -94 -114q-92 -56 -195 -56q-19 0 -197 39q-175 39 -196 39q-46 0 -101 -22l-75 -33l-35 -12q-74 0 -74 80z" />
<glyph unicode="&#xd2;" horiz-adv-x="1308" d="M113 653q0 302 149 494q143 184 389 184q245 0 389 -186q154 -195 154 -492t-154 -495q-142 -183 -389 -183q-241 0 -385 185q-153 197 -153 493zM313 653q0 -74 19 -154t57 -156.5t106.5 -125.5t155.5 -49q70 0 128.5 31.5t97.5 82t66.5 115t39.5 129.5t12 127 q0 82 -21 165t-61.5 155.5t-109 118t-152.5 45.5q-71 0 -130 -31.5t-96.5 -82t-63.5 -115.5t-37 -129t-11 -126zM432.5 1809q6.5 23 34.5 28h145q45 -3 60 -57l121 -305l6 -25q1 -28 -49.5 -50t-77.5 -9q-16 11 -23 28l-213 350q-10 17 -3.5 40z" />
<glyph unicode="&#xd3;" horiz-adv-x="1308" d="M113 653q0 302 149 494q143 184 389 184q245 0 389 -186q154 -195 154 -492t-154 -495q-142 -183 -389 -183q-241 0 -385 185q-153 197 -153 493zM313 653q0 -74 19 -154t57 -156.5t106.5 -125.5t155.5 -49q70 0 128.5 31.5t97.5 82t66.5 115t39.5 129.5t12 127 q0 82 -21 165t-61.5 155.5t-109 118t-152.5 45.5q-71 0 -130 -31.5t-96.5 -82t-63.5 -115.5t-37 -129t-11 -126zM530 1450l7 25l120 305q15 54 60 57h145q28 -5 34.5 -28t-3.5 -40l-213 -350q-7 -17 -23 -28q-27 -13 -77.5 9t-49.5 50z" />
<glyph unicode="&#xd4;" horiz-adv-x="1308" d="M113 653q0 302 149 494q143 184 389 184q245 0 389 -186q154 -195 154 -492t-154 -495q-142 -183 -389 -183q-241 0 -385 185q-153 197 -153 493zM289 1456q-4 29 16 51l268 242q64 40 132 0l268 -242q21 -24 18 -47q-7 -36 -18.5 -53.5t-38.5 -20.5l-33 15l-262 178 l-274 -190q-34 0 -51 16t-25 51zM313 653q0 -74 19 -154t57 -156.5t106.5 -125.5t155.5 -49q70 0 128.5 31.5t97.5 82t66.5 115t39.5 129.5t12 127q0 82 -21 165t-61.5 155.5t-109 118t-152.5 45.5q-71 0 -130 -31.5t-96.5 -82t-63.5 -115.5t-37 -129t-11 -126z" />
<glyph unicode="&#xd5;" horiz-adv-x="1308" d="M113 653q0 302 149 494q143 184 389 184q245 0 389 -186q154 -195 154 -492t-154 -495q-142 -183 -389 -183q-241 0 -385 185q-153 197 -153 493zM213 1473q0 61 90 114q91 55 199 55q11 0 90 -20q110 -29 225 -47l41 -8q29 0 41 -2q45 0 205 65q76 0 76 -78 q0 -58 -95 -114q-92 -56 -194 -56q-19 0 -197 39q-175 39 -196 39q-46 0 -101 -22l-75 -33l-35 -12q-74 0 -74 80zM313 653q0 -74 19 -154t57 -156.5t106.5 -125.5t155.5 -49q70 0 128.5 31.5t97.5 82t66.5 115t39.5 129.5t12 127q0 82 -21 165t-61.5 155.5t-109 118 t-152.5 45.5q-71 0 -130 -31.5t-96.5 -82t-63.5 -115.5t-37 -129t-11 -126z" />
<glyph unicode="&#xd6;" horiz-adv-x="1308" d="M113 653q0 302 149 494q143 184 389 184q245 0 389 -186q154 -195 154 -492t-154 -495q-142 -183 -389 -183q-241 0 -385 185q-153 197 -153 493zM289 1518q0 59 36 96t85 37t84.5 -37t35.5 -96t-35.5 -95.5t-84.5 -36.5t-85 36.5t-36 95.5zM313 653q0 -74 19 -154 t57 -156.5t106.5 -125.5t155.5 -49q70 0 128.5 31.5t97.5 82t66.5 115t39.5 129.5t12 127q0 82 -21 165t-61.5 155.5t-109 118t-152.5 45.5q-71 0 -130 -31.5t-96.5 -82t-63.5 -115.5t-37 -129t-11 -126zM678 1518q0 59 36 96t85 37t85 -37t36 -96t-36 -95.5t-85 -36.5 t-85 36.5t-36 95.5z" />
<glyph unicode="&#xd7;" horiz-adv-x="1103" d="M125 184q6 31 37 76l231 232l-225 227q-29 29 -29 70.5t31 72.5q29 29 73 29.5t70 -27.5l228 -225l229 213q64 64 145 12q65 -69 -10 -147l-231 -213l227 -228q60 -60 -2 -141q-26 -29 -78 -35q-38 5 -65 29l-228 229l-231 -233q-39 -34 -78 -39q-38 5 -67 31 q-18 18 -27 67z" />
<glyph unicode="&#xd8;" horiz-adv-x="1308" d="M113 653q0 302 149 494q143 184 389 184q95 0 180 -31q30 23 58 23q31 0 65 -27q25 -41 27 -71l-2 -15q32 -29 61 -65q154 -195 154 -492t-154 -495q-142 -183 -389 -183q-93 0 -172 27q-30 -33 -59 -33q-30 0 -66 31q-20 28 -26 70l2 20q-34 30 -64 70 q-153 197 -153 493zM313 653q0 -85 25 -180t74 -168l333 815q-49 17 -94 17q-71 0 -130 -31.5t-96.5 -82t-63.5 -115.5t-37 -129t-11 -126zM563 182q38 -14 88 -14q70 0 128.5 31.5t97.5 82t66.5 115t39.5 129.5t12 127q0 89 -25 181t-73 161z" />
<glyph unicode="&#xd9;" horiz-adv-x="1191" d="M119 465v803q5 27 79 36q77 9 112 -12q15 -10 12 -24v-721q0 -55 7 -104.5t25 -101t47 -89t77 -61t110 -23.5q74 0 129 29.5t86.5 81.5t47 113.5t17.5 133.5v742q6 22 51.5 33.5t90 3t47.5 -36.5v-766q0 -263 -128.5 -401t-353.5 -138q-102 0 -190 35t-147 102 q-119 137 -119 365zM432.5 1809q6.5 23 34.5 28h145q45 -3 60 -57l121 -305l6 -25q1 -28 -49.5 -50t-77.5 -9q-16 11 -23 28l-213 350q-10 17 -3.5 40z" />
<glyph unicode="&#xda;" horiz-adv-x="1191" d="M119 465v803q5 27 79 36q77 9 112 -12q15 -10 12 -24v-721q0 -55 7 -104.5t25 -101t47 -89t77 -61t110 -23.5q74 0 129 29.5t86.5 81.5t47 113.5t17.5 133.5v742q6 22 51.5 33.5t90 3t47.5 -36.5v-766q0 -263 -128.5 -401t-353.5 -138q-102 0 -190 35t-147 102 q-119 137 -119 365zM428 1450l6 25l121 305q15 54 59 57h146q28 -5 34.5 -28t-3.5 -40l-213 -350q-7 -17 -23 -28q-27 -13 -77.5 9t-49.5 50z" />
<glyph unicode="&#xdb;" horiz-adv-x="1191" d="M119 465v803q5 27 79 36q77 9 112 -12q15 -10 12 -24v-721q0 -55 7 -104.5t25 -101t47 -89t77 -61t110 -23.5q74 0 129 29.5t86.5 81.5t47 113.5t17.5 133.5v742q6 22 51.5 33.5t90 3t47.5 -36.5v-766q0 -263 -128.5 -401t-353.5 -138q-102 0 -190 35t-147 102 q-119 137 -119 365zM248 1456q-4 29 16 51l268 242q64 40 132 0l268 -242q21 -24 18 -47q-7 -36 -18.5 -53.5t-38.5 -20.5l-33 15l-262 178l-274 -190q-34 0 -51 16t-25 51z" />
<glyph unicode="&#xdc;" horiz-adv-x="1191" d="M119 465v803q5 27 79 36q77 9 112 -12q15 -10 12 -24v-721q0 -55 7 -104.5t25 -101t47 -89t77 -61t110 -23.5q74 0 129 29.5t86.5 81.5t47 113.5t17.5 133.5v742q6 22 51.5 33.5t90 3t47.5 -36.5v-766q0 -263 -128.5 -401t-353.5 -138q-102 0 -190 35t-147 102 q-119 137 -119 365zM309 1518q0 59 36 96t85 37t85 -37t36 -96t-36 -95.5t-85 -36.5t-85 36.5t-36 95.5zM698 1518q0 59 36 96t85 37t85 -37t36 -96t-36 -95.5t-85 -36.5t-85 36.5t-36 95.5z" />
<glyph unicode="&#xdd;" horiz-adv-x="1138" d="M78 1249q-12 31 38 46q60 19 126 -3q42 -15 63 -43l277 -526l274 526q19 33 72.5 46.5t97 0t37.5 -46.5l-395 -747v-463q-14 -26 -61.5 -35.5t-91 1t-46.5 34.5v481zM510 1450l6 25l121 305q15 54 59 57h146q28 -5 34 -28t-4 -40l-213 -350q-7 -18 -22 -28 q-27 -13 -77.5 9t-49.5 50z" />
<glyph unicode="&#xde;" horiz-adv-x="1161" d="M135 57v1203q2 19 23 33t49 18t55.5 1.5t46.5 -16.5t19 -36v-181h209q497 0 497 -420q0 -138 -78.5 -242.5t-220.5 -135.5q-59 -15 -198 -15h-209v-209q-12 -45 -59 -57.5t-90 6t-44 51.5zM328 457h219q140 0 207 46t67 152q0 75 -43 134t-116 77q-24 8 -334 8v-417z" />
<glyph unicode="&#xdf;" horiz-adv-x="1288" d="M172 49v959q0 178 109 243q82 52 294 52q214 0 304 -41q127 -53 127 -213q0 -125 -269 -258q-96 -30 -96 -91q0 -64 104 -104q18 -6 79 -25.5t106 -35.5q246 -85 246 -269q0 -141 -134 -225q-116 -76 -280 -76q-88 0 -141 17.5t-117 58.5q-11 8 -12.5 25.5t7 37.5t24 38 t40.5 28.5t53 7.5q38 -22 51.5 -29t42 -13.5t66.5 -6.5q87 0 150 35q69 37 69 88q0 52 -45.5 88t-161.5 74q-180 64 -239 110q-86 65 -86 172q0 134 151 205q14 5 30.5 13.5t41.5 22.5t45 24q74 44 74 102q0 34 -59 55t-158 21q-133 0 -176 -35q-45 -36 -45 -150v-905 q1 -29 -57 -45q-64 -17 -110 1q-35 14 -28 44z" />
<glyph unicode="&#xe0;" horiz-adv-x="1069" d="M98 313q0 166 124 258.5t341 92.5h64l49 -9q39 0 88 -14q-7 88 -52.5 124t-136.5 36q-23 0 -153 -43l-133 -41q-32 0 -68 31q-20 39 -20 81q0 71 114 121q111 51 283 51q184 0 273.5 -90.5t89.5 -285.5v-424q14 -124 -11 -165.5t-78 -37.5q-83 0 -92 108 q-155 -131 -342 -131q-155 0 -247.5 91.5t-92.5 246.5zM299 322q0 -51 43 -97q45 -39 121 -39q110 0 205 62q96 62 96 127v71l-29 9l-63 16l-82 6q-125 9 -207 -41q-46 -29 -65 -52.5t-19 -61.5zM393.5 1496q6.5 23 34.5 28h145q44 -3 60 -58l121 -305l6 -24 q1 -28 -49.5 -50.5t-77.5 -9.5q-16 10 -23 29l-213 350q-10 17 -3.5 40z" />
<glyph unicode="&#xe1;" horiz-adv-x="1069" d="M98 313q0 166 124 258.5t341 92.5h64l49 -9q39 0 88 -14q-7 88 -52.5 124t-136.5 36q-23 0 -153 -43l-133 -41q-32 0 -68 31q-20 39 -20 81q0 71 114 121q111 51 283 51q184 0 273.5 -90.5t89.5 -285.5v-424q14 -124 -11 -165.5t-78 -37.5q-83 0 -92 108 q-155 -131 -342 -131q-155 0 -247.5 91.5t-92.5 246.5zM299 322q0 -51 43 -97q45 -39 121 -39q110 0 205 62q96 62 96 127v71l-29 9l-63 16l-82 6q-125 9 -207 -41q-46 -29 -65 -52.5t-19 -61.5zM389 1137l6 24l121 305q16 55 59 58h146q28 -5 34.5 -28t-3.5 -40l-213 -350 q-7 -19 -23 -29q-27 -13 -77.5 9.5t-49.5 50.5z" />
<glyph unicode="&#xe2;" horiz-adv-x="1069" d="M98 313q0 166 124 258.5t341 92.5h64l49 -9q39 0 88 -14q-7 88 -52.5 124t-136.5 36q-23 0 -153 -43l-133 -41q-32 0 -68 31q-20 39 -20 81q0 71 114 121q111 51 283 51q184 0 273.5 -90.5t89.5 -285.5v-424q14 -124 -11 -165.5t-78 -37.5q-83 0 -92 108 q-155 -131 -342 -131q-155 0 -247.5 91.5t-92.5 246.5zM227 1108q-3 28 17 51l268 242q63 40 131 0l268 -242q22 -25 19 -47q-7 -36 -19 -53.5t-39 -20.5l-32 15l-262 178l-275 -191q-34 0 -51 16.5t-25 51.5zM299 322q0 -51 43 -97q45 -39 121 -39q110 0 205 62 q96 62 96 127v71l-29 9l-63 16l-82 6q-125 9 -207 -41q-46 -29 -65 -52.5t-19 -61.5z" />
<glyph unicode="&#xe3;" horiz-adv-x="1069" d="M98 313q0 166 124 258.5t341 92.5h64l49 -9q39 0 88 -14q-7 88 -52.5 124t-136.5 36q-23 0 -153 -43l-133 -41q-32 0 -68 31q-20 39 -20 81q0 71 114 121q111 51 283 51q184 0 273.5 -90.5t89.5 -285.5v-424q14 -124 -11 -165.5t-78 -37.5q-83 0 -92 108 q-155 -131 -342 -131q-155 0 -247.5 91.5t-92.5 246.5zM111 1145q0 62 90 115q91 55 198 55q7 0 90 -21q108 -28 226 -47l41 -8q29 0 41 -2q41 0 204 66q76 0 76 -78q0 -60 -94 -115q-91 -55 -195 -55q-18 0 -196 39q-175 39 -197 39q-43 0 -100 -23l-76 -33l-35 -12 q-73 0 -73 80zM299 322q0 -51 43 -97q45 -39 121 -39q110 0 205 62q96 62 96 127v71l-29 9l-63 16l-82 6q-125 9 -207 -41q-46 -29 -65 -52.5t-19 -61.5z" />
<glyph unicode="&#xe4;" horiz-adv-x="1069" d="M98 313q0 166 124 258.5t341 92.5h64l49 -9q39 0 88 -14q-7 88 -52.5 124t-136.5 36q-23 0 -153 -43l-133 -41q-32 0 -68 31q-20 39 -20 81q0 71 114 121q111 51 283 51q184 0 273.5 -90.5t89.5 -285.5v-424q14 -124 -11 -165.5t-78 -37.5q-83 0 -92 108 q-155 -131 -342 -131q-155 0 -247.5 91.5t-92.5 246.5zM289 1190q0 59 36 96t85 37t84.5 -37t35.5 -96t-35.5 -95t-84.5 -36q-50 0 -85.5 36t-35.5 95zM299 322q0 -51 43 -97q45 -39 121 -39q110 0 205 62q96 62 96 127v71l-29 9l-63 16l-82 6q-125 9 -207 -41 q-46 -29 -65 -52.5t-19 -61.5zM678 1190q0 59 36 96t85 37t85 -37t36 -96t-35.5 -95t-85.5 -36t-85.5 36t-35.5 95z" />
<glyph unicode="&#xe5;" horiz-adv-x="1069" d="M98 313q0 166 124 258.5t341 92.5h64l49 -9q39 0 88 -14q-7 88 -52.5 124t-136.5 36q-23 0 -153 -43l-133 -41q-32 0 -68 31q-20 39 -20 81q0 71 114 121q111 51 283 51q184 0 273.5 -90.5t89.5 -285.5v-424q14 -124 -11 -165.5t-78 -37.5q-83 0 -92 108 q-155 -131 -342 -131q-155 0 -247.5 91.5t-92.5 246.5zM258 1329q0 110 87 189t210 79t210 -79t87 -189t-87 -188t-210 -78t-210 78t-87 188zM299 322q0 -51 43 -97q45 -39 121 -39q110 0 205 62q96 62 96 127v71l-29 9l-63 16l-82 6q-125 9 -207 -41q-46 -29 -65 -52.5 t-19 -61.5zM381 1329q0 -63 51 -109t123 -46t123 46t51 109q0 64 -51.5 111t-122.5 47t-122.5 -47t-51.5 -111z" />
<glyph unicode="&#xe6;" horiz-adv-x="1927" d="M98 313q0 166 124 258.5t341 92.5h64l49 -9q39 0 88 -14q-7 88 -52.5 124t-136.5 36q-23 0 -153 -43l-133 -41q-32 0 -68 31q-20 39 -20 81q0 71 114 121q111 51 283 51q243 0 322 -159l10 10q143 149 379 149q203 0 348 -139q143 -137 143 -342q0 -69 -38.5 -98 t-131.5 -29h-629q27 -78 68.5 -126t89 -68t113 -18.5t127 15.5t143.5 42q163 55 162 65q79 -3 88 -92q0 -78 -115 -143q-166 -93 -389 -93q-196 0 -325 105q-7 -51 -30.5 -67.5t-60.5 -14.5q-83 0 -92 108q-155 -131 -342 -131q-155 0 -247.5 91.5t-92.5 246.5zM299 322 q0 -51 43 -97q45 -39 121 -39q110 0 205 62q96 62 96 127v71l-29 9l-63 16l-82 6q-125 9 -207 -41q-46 -29 -65 -52.5t-19 -61.5zM1012 586h559q-19 99 -91.5 161t-170.5 62q-227 0 -297 -223z" />
<glyph unicode="&#xe7;" horiz-adv-x="1155" d="M94 467q0 226 144 379q143 155 358 155q61 0 124 -15t123 -46.5t106.5 -74.5t75 -104t28.5 -130q0 -23 -31.5 -44.5t-69.5 -23t-71 26.5q-33 198 -263 198q-140 0 -224.5 -86.5t-84.5 -232.5q0 -118 87.5 -203.5t203.5 -85.5q111 0 188 53l29 21l49 39q81 63 111 63 q90 0 90 -104q0 -93 -152 -186q-154 -91 -315 -91q-42 0 -102 11l-11 -19q-11 -20 4 -33t50.5 -25.5t77 -28.5t90 -52t82.5 -86q82 -119 -73 -202q-113 -60 -285 -77q-65 -7 -103 -2t-66 20t-40 34t-13 39t14 38t43 29q25 10 75.5 11t99.5 -1.5t95.5 -1.5t74.5 16t26 46 q-3 38 -37.5 69.5t-75.5 48.5t-91 37t-70 33q-43 32 20 144q-131 59 -211 179.5t-80 264.5z" />
<glyph unicode="&#xe8;" horiz-adv-x="1204" d="M86 459q0 247 143 393q143 149 379 149q203 0 348 -139q144 -138 144 -342q0 -69 -38.5 -98t-131.5 -29h-629q27 -78 68.5 -126t89 -68t113 -18.5t127 15.5t143.5 42q177 59 162 65q79 -3 88 -92q0 -78 -115 -143q-166 -93 -389 -93q-228 0 -367 142q-72 76 -103.5 151.5 t-31.5 190.5zM311 586h559q-19 99 -91.5 161t-170.5 62q-227 0 -297 -223zM393.5 1496q6.5 23 34.5 28h145q44 -3 60 -58l121 -305l6 -24q1 -28 -49.5 -50.5t-77.5 -9.5q-16 10 -23 29l-213 350q-10 17 -3.5 40z" />
<glyph unicode="&#xe9;" horiz-adv-x="1204" d="M86 459q0 247 143 393q143 149 379 149q203 0 348 -139q144 -138 144 -342q0 -69 -38.5 -98t-131.5 -29h-629q27 -78 68.5 -126t89 -68t113 -18.5t127 15.5t143.5 42q177 59 162 65q79 -3 88 -92q0 -78 -115 -143q-166 -93 -389 -93q-228 0 -367 142q-72 76 -103.5 151.5 t-31.5 190.5zM311 586h559q-19 99 -91.5 161t-170.5 62q-227 0 -297 -223zM451 1137l6 24l121 305q16 55 59 58h145q28 -5 34.5 -28t-3.5 -40l-213 -350q-8 -20 -22 -29q-27 -13 -77.5 9.5t-49.5 50.5z" />
<glyph unicode="&#xea;" horiz-adv-x="1204" d="M86 459q0 247 143 393q143 149 379 149q203 0 348 -139q144 -138 144 -342q0 -69 -38.5 -98t-131.5 -29h-629q27 -78 68.5 -126t89 -68t113 -18.5t127 15.5t143.5 42q177 59 162 65q79 -3 88 -92q0 -78 -115 -143q-166 -93 -389 -93q-228 0 -367 142q-72 76 -103.5 151.5 t-31.5 190.5zM268 1108q-3 28 17 51l268 242q63 40 131 0l268 -242q22 -25 19 -47q-7 -36 -19 -53.5t-39 -20.5l-32 15l-263 178l-274 -191q-34 0 -51 16.5t-25 51.5zM311 586h559q-19 99 -91.5 161t-170.5 62q-227 0 -297 -223z" />
<glyph unicode="&#xeb;" horiz-adv-x="1204" d="M86 459q0 247 143 393q143 149 379 149q203 0 348 -139q144 -138 144 -342q0 -69 -38.5 -98t-131.5 -29h-629q27 -78 68.5 -126t89 -68t113 -18.5t127 15.5t143.5 42q177 59 162 65q79 -3 88 -92q0 -78 -115 -143q-166 -93 -389 -93q-228 0 -367 142q-72 76 -103.5 151.5 t-31.5 190.5zM311 586h559q-19 99 -91.5 161t-170.5 62q-227 0 -297 -223zM330 1190q0 59 36 96t85 37t84.5 -37t35.5 -96t-35.5 -95t-84.5 -36q-50 0 -85.5 36t-35.5 95zM719 1190q0 59 36 96t85 37t85 -37t36 -96t-35.5 -95t-85.5 -36t-85.5 36t-35.5 95z" />
<glyph unicode="&#xec;" horiz-adv-x="526" d="M25 1496q6 23 34 28h146q43 -3 59 -58l121 -305l6 -24q1 -28 -49.5 -50.5t-77.5 -9.5q-14 9 -22 29l-213 350q-10 17 -4 40zM147 57v895q2 19 23 33t49 18t55.5 1.5t46.5 -16.5t19 -36v-895q-12 -45 -59 -57.5t-90 6t-44 51.5z" />
<glyph unicode="&#xed;" horiz-adv-x="526" d="M123 1137l6 24l121 305q16 55 59 58h146q28 -5 34 -28t-4 -40l-213 -350q-8 -20 -22 -29q-27 -13 -77.5 9.5t-49.5 50.5zM147 57v895q2 19 23 33t49 18t55.5 1.5t46.5 -16.5t19 -36v-895q-12 -45 -59 -57.5t-90 6t-44 51.5z" />
<glyph unicode="&#xee;" horiz-adv-x="526" d="M-100 1108q-4 29 16 51l268 242q63 40 131 0l269 -242q21 -24 18 -47q-7 -36 -18.5 -53.5t-38.5 -20.5l-33 15l-262 178l-275 -191q-34 0 -50.5 16.5t-24.5 51.5zM147 57v895q2 19 23 33t49 18t55.5 1.5t46.5 -16.5t19 -36v-895q-12 -45 -59 -57.5t-90 6t-44 51.5z" />
<glyph unicode="&#xef;" horiz-adv-x="526" d="M-59 1190q0 59 35.5 96t84.5 37t85 -37t36 -96t-35.5 -95t-85.5 -36q-49 0 -84.5 36t-35.5 95zM147 57v895q2 19 23 33t49 18t55.5 1.5t46.5 -16.5t19 -36v-895q-12 -45 -59 -57.5t-90 6t-44 51.5zM330 1190q0 59 36 96t85 37t84.5 -37t35.5 -96t-35.5 -95t-84.5 -36 q-50 0 -85.5 36t-35.5 95z" />
<glyph unicode="&#xf0;" horiz-adv-x="1099" d="M129 422q0 189 123 309q55 55 148.5 85t189 19.5t147.5 -65.5q-58 270 -256 342l-123 -145q-22 -5 -51 5.5t-46 27.5t-9 28l86 109q-18 2 -55 2q-138 0 -138 90q0 49 35 71q42 16 66 19h73q68 0 150 -14l59 75q45 19 73 7t41.5 -34.5t8.5 -37.5l-47 -55q109 -55 189 -146 q178 -205 178 -536q0 -139 -23.5 -242t-83.5 -182q-60 -80 -150.5 -122t-191.5 -42q-171 0 -282 123t-111 309zM342 412q0 -107 50.5 -170.5t137.5 -63.5q90 0 146.5 70t56.5 178q0 100 -54.5 164.5t-141.5 64.5t-141 -67.5t-54 -175.5z" />
<glyph unicode="&#xf1;" horiz-adv-x="1062" d="M29 1145q0 62 90 115q91 55 198 55q9 0 91 -21q110 -29 225 -47l41 -8q29 0 41 -2q42 0 205 66q75 0 75 -78q0 -60 -94 -115q-91 -55 -194 -55q-19 0 -197 39q-175 39 -197 39q-43 0 -100 -23l-76 -33l-35 -12q-73 0 -73 80zM129 57v887q2 19 23 33t49 18t55.5 1.5 t46.5 -16.5t19 -36v-29q106 80 235 80q160 0 266.5 -109.5t106.5 -291.5v-547q-4 -31 -52.5 -43t-95.5 0.5t-47 42.5v506q0 109 -60.5 168t-150.5 59q-59 0 -114.5 -26.5t-87.5 -71.5v-625q-12 -45 -59 -57.5t-90 6t-44 51.5z" />
<glyph unicode="&#xf2;" horiz-adv-x="1298" d="M133 479q0 237 146 385t376 148q235 0 379 -150q148 -148 148 -383q0 -142 -75.5 -259t-196 -181t-255.5 -64q-145 0 -265 66.5t-188.5 182t-68.5 255.5zM346 479q0 -127 93 -217t216 -90q129 0 220.5 92t91.5 215q0 139 -89.5 238.5t-222.5 99.5q-137 0 -223 -101.5 t-86 -236.5zM455 1496q6 23 34 28h146q43 -3 59 -58l121 -305l6 -24q1 -28 -49.5 -50.5t-77.5 -9.5q-14 9 -22 29l-213 350q-10 17 -4 40z" />
<glyph unicode="&#xf3;" horiz-adv-x="1298" d="M133 479q0 237 146 385t376 148q235 0 379 -150q148 -148 148 -383q0 -142 -75.5 -259t-196 -181t-255.5 -64q-145 0 -265 66.5t-188.5 182t-68.5 255.5zM346 479q0 -127 93 -217t216 -90q129 0 220.5 92t91.5 215q0 139 -89.5 238.5t-222.5 99.5q-137 0 -223 -101.5 t-86 -236.5zM532 1137l7 24l120 305q16 55 60 58h145q28 -5 34.5 -28t-3.5 -40l-213 -350q-7 -19 -23 -29q-27 -13 -77.5 9.5t-49.5 50.5z" />
<glyph unicode="&#xf4;" horiz-adv-x="1298" d="M133 479q0 237 146 385t376 148q235 0 379 -150q148 -148 148 -383q0 -142 -75.5 -259t-196 -181t-255.5 -64q-145 0 -265 66.5t-188.5 182t-68.5 255.5zM309 1108q-3 28 17 51l268 242q63 40 131 0l268 -242q22 -25 19 -47q-7 -36 -19 -53.5t-39 -20.5l-32 15l-263 178 l-274 -191q-34 0 -51 16.5t-25 51.5zM346 479q0 -127 93 -217t216 -90q129 0 220.5 92t91.5 215q0 139 -89.5 238.5t-222.5 99.5q-137 0 -223 -101.5t-86 -236.5z" />
<glyph unicode="&#xf5;" horiz-adv-x="1298" d="M133 479q0 237 146 385t376 148q235 0 379 -150q148 -148 148 -383q0 -142 -75.5 -259t-196 -181t-255.5 -64q-145 0 -265 66.5t-188.5 182t-68.5 255.5zM213 1145q0 62 90 115q91 55 199 55q8 0 90 -21q110 -29 225 -47l41 -8q29 0 41 -2q42 0 205 66q76 0 76 -78 q0 -59 -95 -115q-91 -55 -194 -55q-19 0 -197 39q-175 39 -196 39q-44 0 -101 -23l-75 -33l-35 -12q-74 0 -74 80zM346 479q0 -127 93 -217t216 -90q129 0 220.5 92t91.5 215q0 139 -89.5 238.5t-222.5 99.5q-137 0 -223 -101.5t-86 -236.5z" />
<glyph unicode="&#xf6;" horiz-adv-x="1298" d="M133 479q0 237 146 385t376 148q235 0 379 -150q148 -148 148 -383q0 -142 -75.5 -259t-196 -181t-255.5 -64q-145 0 -265 66.5t-188.5 182t-68.5 255.5zM346 479q0 -127 93 -217t216 -90q129 0 220.5 92t91.5 215q0 139 -89.5 238.5t-222.5 99.5q-137 0 -223 -101.5 t-86 -236.5zM371 1190q0 59 36 96t85 37t84.5 -37t35.5 -96t-35.5 -95t-84.5 -36q-50 0 -85.5 36t-35.5 95zM760 1190q0 59 36 96t85 37t84.5 -37t35.5 -96t-35.5 -95t-84.5 -36q-50 0 -85.5 36t-35.5 95z" />
<glyph unicode="&#xf7;" horiz-adv-x="1232" d="M154 483v54q0 46 61 55h791q69 0 69 -55v-52q0 -20 -20 -43q-18 -15 -47 -18h-789q-16 0 -53 16zM444 174q0 73 44.5 120.5t113.5 47.5q71 0 115.5 -46t44.5 -122q0 -73 -45.5 -120.5t-114.5 -47.5t-113.5 46.5t-44.5 121.5zM444 836q0 73 44.5 120.5t113.5 47.5 q71 0 115.5 -46t44.5 -122q0 -73 -45.5 -120.5t-114.5 -47.5t-113.5 46.5t-44.5 121.5z" />
<glyph unicode="&#xf8;" horiz-adv-x="1298" d="M133 479q0 237 146 385t376 148q43 0 86 -6l13 38q15 50 34 78q21 21 43 21q28 0 50 -25q18 -35 20 -65l-4 -27l-6 -22l-12 -35q88 -37 155 -107q148 -148 148 -383q0 -142 -75.5 -259t-196 -181t-255.5 -64q-45 0 -106 11q-31 -84 -70 -84q-24 0 -49 28q-17 25 -20 64 l2 26l2 9q-129 64 -205 183.5t-76 266.5zM346 479q0 -77 36 -143.5t97 -108.5l197 588q-3 0 -10.5 1t-10.5 1q-137 0 -223 -101.5t-86 -236.5zM612 174q14 -2 43 -2q129 0 220.5 92t91.5 215q0 92 -41.5 170t-112.5 123z" />
<glyph unicode="&#xf9;" horiz-adv-x="1052" d="M106 373v563q10 37 36 47.5t75 7.5q42 -3 60 -23.5t24 -82.5v-475q0 -122 43 -175t143 -53q97 0 163.5 65t66.5 163v518q13 74 102 63q49 3 69.5 -28t20.5 -97v-665l6 -164q-3 -45 -120 -39q-62 -3 -78 68v22q-147 -111 -273 -111q-338 0 -338 396zM250.5 1496 q6.5 23 34.5 28h145q43 -3 59 -58l121 -305l6 -24q1 -28 -49.5 -50.5t-77.5 -9.5q-14 9 -22 29l-213 350q-10 17 -3.5 40z" />
<glyph unicode="&#xfa;" horiz-adv-x="1052" d="M106 373v563q10 37 36 47.5t75 7.5q42 -3 60 -23.5t24 -82.5v-475q0 -122 43 -175t143 -53q97 0 163.5 65t66.5 163v518q13 74 102 63q49 3 69.5 -28t20.5 -97v-665l6 -164q-3 -45 -120 -39q-62 -3 -78 68v22q-147 -111 -273 -111q-338 0 -338 396zM451 1137l6 24 l121 305q16 55 59 58h145q28 -5 34.5 -28t-3.5 -40l-213 -350q-8 -20 -22 -29q-27 -13 -77.5 9.5t-49.5 50.5z" />
<glyph unicode="&#xfb;" horiz-adv-x="1052" d="M106 373v563q10 37 36 47.5t75 7.5q42 -3 60 -23.5t24 -82.5v-475q0 -122 43 -175t143 -53q97 0 163.5 65t66.5 163v518q13 74 102 63q49 3 69.5 -28t20.5 -97v-665l6 -164q-3 -45 -120 -39q-62 -3 -78 68v22q-147 -111 -273 -111q-338 0 -338 396zM145 1108q-3 28 17 51 l268 242q63 40 131 0l268 -242q22 -25 19 -47q-7 -36 -18.5 -53.5t-38.5 -20.5l-33 15l-262 178l-275 -191q-34 0 -51 16.5t-25 51.5z" />
<glyph unicode="&#xfc;" horiz-adv-x="1052" d="M106 373v563q10 37 36 47.5t75 7.5q42 -3 60 -23.5t24 -82.5v-475q0 -122 43 -175t143 -53q97 0 163.5 65t66.5 163v518q13 74 102 63q49 3 69.5 -28t20.5 -97v-665l6 -164q-3 -45 -120 -39q-62 -3 -78 68v22q-147 -111 -273 -111q-338 0 -338 396zM186 1190q0 59 36 96 t85 37t85 -37t36 -96t-35.5 -95t-85.5 -36t-85.5 36t-35.5 95zM575 1190q0 59 36 96t85 37t85 -37t36 -96t-35.5 -95t-85.5 -36t-85.5 36t-35.5 95z" />
<glyph unicode="&#xfd;" horiz-adv-x="1142" d="M85.5 908.5q-2.5 44.5 43.5 72.5q32 18 57 25t46 0t36 -18t33 -41.5t30 -56.5t34 -77l219 -498l225 498q9 15 18.5 35t15.5 35t15 33t17.5 29t21.5 23.5t27.5 16.5t36 7.5t47.5 -3.5q30 1 42.5 -17.5t9.5 -46.5t-14.5 -57.5t-27.5 -52.5l-567 -1243h4q-35 -48 -124 -46 q-66 1 -88 24q-10 11 -1 22l229 504l-338 737q-45 51 -47.5 95.5zM492 1137l6 24l120 305q16 55 60 58h145q28 -5 34.5 -28t-3.5 -40l-213 -350q-7 -19 -23 -29q-27 -13 -77 9.5t-49 50.5z" />
<glyph unicode="&#xfe;" horiz-adv-x="1220" d="M139 -373v1645q2 19 23 33t49 18t55.5 1.5t46.5 -16.5t19 -36v-387l6 -4q116 110 293 110q199 0 334 -153q71 -78 104 -161t33 -190q0 -131 -64.5 -248t-175 -188t-237.5 -71q-175 0 -273 110l-20 -6v-457q-12 -45 -59 -57.5t-90 6t-44 51.5zM334 492q0 -135 76.5 -213 t201.5 -78t202 78t77 213t-77 213.5t-202 78.5q-126 0 -202 -78.5t-76 -213.5z" />
<glyph unicode="&#xff;" horiz-adv-x="1142" d="M85.5 908.5q-2.5 44.5 43.5 72.5q32 18 57 25t46 0t36 -18t33 -41.5t30 -56.5t34 -77l219 -498l225 498q9 15 18.5 35t15.5 35t15 33t17.5 29t21.5 23.5t27.5 16.5t36 7.5t47.5 -3.5q30 1 42.5 -17.5t9.5 -46.5t-14.5 -57.5t-27.5 -52.5l-567 -1243h4q-35 -48 -124 -46 q-66 1 -88 24q-10 11 -1 22l229 504l-338 737q-45 51 -47.5 95.5zM268 1190q0 59 36 96t85 37t85 -37t36 -96t-35.5 -95t-85.5 -36t-85.5 36t-35.5 95zM657 1190q0 59 36 96t85 37t85 -37t36 -96t-35.5 -95t-85.5 -36t-85.5 36t-35.5 95z" />
<glyph unicode="&#x152;" horiz-adv-x="2146" d="M72 696q0 298 147 508q74 100 197 154.5t282 54.5q234 0 361 -127v105h903v-195h-647v-381h596v-192h-596v-433h678v-192h-934v117q-134 -140 -361 -140q-155 0 -279.5 58t-205.5 164q-141 202 -141 499zM346 682q0 -280 105 -403h-2q114 -127 249 -127t244 127 q107 119 107 428q0 282 -107 401q-109 127 -244 127q-96 0 -179.5 -60t-127.5 -176q-45 -124 -45 -317z" />
<glyph unicode="&#x153;" horiz-adv-x="2076" d="M72 539q0 167 66 300.5t188 202.5q130 68 284 68q129 0 231 -44.5t165 -119.5q69 78 169 121t218 43q236 0 383 -156q148 -164 145 -465h-784q6 -149 82 -231q85 -88 196 -88q85 0 147.5 57t94.5 166l254 -37q-48 -174 -176 -269t-322 -95q-129 0 -235 44.5t-174 121.5 q-78 -76 -181 -121t-215 -45q-247 0 -389 145q-147 153 -147 402zM330 553q0 -188 63 -266q85 -117 211 -117q108 0 195 96q82 95 82 289q0 180 -78 279.5t-199 99.5q-118 6 -198.5 -105.5t-75.5 -275.5zM1145 666h510q-20 125 -87.5 196.5t-162.5 71.5q-97 0 -168 -75.5 t-92 -192.5z" />
<glyph unicode="&#x178;" horiz-adv-x="1138" d="M78 1249q-12 31 38 46q60 19 126 -3q42 -15 63 -43l277 -526l274 526q19 33 72.5 46.5t97 0t37.5 -46.5l-395 -747v-463q-14 -26 -61.5 -35.5t-91 1t-46.5 34.5v481zM289 1518q0 59 36 96t85 37t84.5 -37t35.5 -96t-35.5 -95.5t-84.5 -36.5t-85 36.5t-36 95.5zM678 1518 q0 59 36 96t85 37t85 -37t36 -96t-36 -95.5t-85 -36.5t-85 36.5t-36 95.5z" />
<glyph unicode="&#x2c6;" horiz-adv-x="956" d="M72 1096l241 305h240l250 -305h-277l-86 129q-75 -111 -88 -129h-280z" />
<glyph unicode="&#x2dc;" horiz-adv-x="968" d="M72 1143q0 123 67 190q65 68 174 68q73 0 183 -58q57 -26 79 -26q14 0 23 18.5t16 67.5h201q-1 -126 -65 -191t-168 -65q-80 0 -185 57q-59 33 -80 33q-10 0 -26 -16q-12 -12 -12 -78h-207z" />
<glyph unicode="&#x2000;" horiz-adv-x="918" />
<glyph unicode="&#x2001;" horiz-adv-x="1837" />
<glyph unicode="&#x2002;" horiz-adv-x="918" />
<glyph unicode="&#x2003;" horiz-adv-x="1837" />
<glyph unicode="&#x2004;" horiz-adv-x="612" />
<glyph unicode="&#x2005;" horiz-adv-x="459" />
<glyph unicode="&#x2006;" horiz-adv-x="306" />
<glyph unicode="&#x2007;" horiz-adv-x="306" />
<glyph unicode="&#x2008;" horiz-adv-x="229" />
<glyph unicode="&#x2009;" horiz-adv-x="367" />
<glyph unicode="&#x200a;" horiz-adv-x="102" />
<glyph unicode="&#x2010;" d="M154 463v94q0 46 61 55h791q69 0 69 -55v-92q0 -20 -20 -43q-19 -16 -47 -19h-789q-14 0 -53 17z" />
<glyph unicode="&#x2011;" d="M154 463v94q0 46 61 55h791q69 0 69 -55v-92q0 -20 -20 -43q-19 -16 -47 -19h-789q-14 0 -53 17z" />
<glyph unicode="&#x2012;" d="M154 463v94q0 46 61 55h791q69 0 69 -55v-92q0 -20 -20 -43q-19 -16 -47 -19h-789q-14 0 -53 17z" />
<glyph unicode="&#x2013;" horiz-adv-x="1437" d="M72 444v172h1212v-172h-1212z" />
<glyph unicode="&#x2014;" horiz-adv-x="2347" d="M72 444v172h2121v-172h-2121z" />
<glyph unicode="&#x2018;" horiz-adv-x="602" d="M125 772l2 23l4 16l199 467q6 18 22 31l25 8l20 -6l52 -23l22 -16l10 -27v-20l-2 -11l-90 -413q-6 -34 -17.5 -44.5t-45.5 -15.5h-162l-29 7l-6 16z" />
<glyph unicode="&#x2019;" horiz-adv-x="542" d="M88 813v21l2 10l90 413q6 33 18 44t46 16h162l28 -6l6 -17l4 -8l-2 -22l-4 -17l-198 -467q-5 -16 -23 -30l-24 -9l-21 7l-51 22l-23 16z" />
<glyph unicode="&#x201a;" horiz-adv-x="509" d="M72 -193q100 43 110 193h-94v219h268v-178q0 -139 -34 -197q-44 -77 -185 -137z" />
<glyph unicode="&#x201c;" horiz-adv-x="1015" d="M88 772l2 23l4 16l199 467q6 18 22 31l25 8l20 -6l52 -23l22 -16l10 -27v-20l-2 -11l-90 -413q-6 -34 -17.5 -44.5t-45.5 -15.5h-162l-29 7l-6 16zM518 772l2 23l4 16l199 467q6 18 22 31l25 8l21 -6l51 -23l22 -16l10 -27v-20l-2 -11l-90 -413q-6 -34 -17.5 -44.5 t-45.5 -15.5h-162l-29 7l-6 16z" />
<glyph unicode="&#x201d;" horiz-adv-x="987" d="M88 813v21l2 10l90 413q6 33 18 44t46 16h162l28 -6l6 -17l4 -8l-2 -22l-4 -17l-198 -467q-5 -16 -23 -30l-24 -9l-21 7l-51 22l-23 16zM518 813v21l2 10l90 413q6 33 18 44t46 16h162l28 -6l6 -17l4 -8l-2 -22l-4 -17l-198 -467q-5 -16 -23 -30l-24 -9l-21 7l-51 22 l-23 16z" />
<glyph unicode="&#x201e;" horiz-adv-x="819" d="M72 -193q100 43 110 193h-94v219h268v-178q0 -139 -34 -197q-44 -77 -185 -137zM381 -190q99 35 113 190h-95v219h267v-178q0 -137 -35 -197q-44 -74 -182 -137z" />
<glyph unicode="&#x2022;" horiz-adv-x="806" d="M72 719q0 102 84 186q82 76 206 76q126 0 205 -76q86 -80 86 -186t-86 -189q-78 -75 -205 -75q-125 0 -206 75q-84 84 -84 189z" />
<glyph unicode="&#x2026;" horiz-adv-x="1869" d="M72 0v233h278v-233h-278zM754 0v233h278v-233h-278zM1436 0v233h280v-233h-280z" />
<glyph unicode="&#x202f;" horiz-adv-x="367" />
<glyph unicode="&#x2039;" horiz-adv-x="772" d="M72 526l325 463h221l-274 -463l113 -188q29 -47 83 -140t78 -132h-221z" />
<glyph unicode="&#x203a;" horiz-adv-x="761" d="M72 66l274 464q-7 14 -25.5 43.5t-25.5 42.5l-223 373h223l313 -450l-315 -473h-221z" />
<glyph unicode="&#x205f;" horiz-adv-x="459" />
<glyph unicode="&#x20ac;" horiz-adv-x="1437" d="M129 528q0 80 66 80h106v43q0 47 2 72h-108q-26 0 -50 18q-16 27 -16 60q0 82 66 82h135q42 148 133 258q67 81 146 127.5t165 57.5t171 -1t181 -45q151 -96 149 -200q-1 -60 -49 -92q-40 -27 -69 -7q-9 6 -14 16q-38 68 -111.5 97.5t-159.5 29.5q-228 0 -329 -241h315 q28 0 47 -24t19 -58t-19 -56t-47 -22h-354q-2 -20 -2 -59q0 -38 2 -56h354q66 0 66 -80q0 -34 -19 -56.5t-47 -22.5h-313q28 -69 73 -132q39 -54 85 -84.5t87.5 -39.5t97 -1t97 21.5t102.5 38.5q44 36 142 90q43 0 71.5 -29t28.5 -73q0 -43 -43 -95q-77 -86 -235 -143 q-88 -33 -183 -33q-242 0 -405 193q-104 122 -141 287h-127q-26 0 -46 23t-20 56z" />
<glyph unicode="&#x2122;" horiz-adv-x="1710" d="M72 1257v140h676v-140h-240v-614h-197v614h-239zM756 643v754h252l153 -467l37 114q14 46 52.5 167.5t58.5 185.5h247v-754h-186v379l-121 -379h-178l-127 393v-393h-188z" />
<glyph unicode="&#xe000;" horiz-adv-x="1003" d="M0 0v1004h1004v-1004h-1004z" />
</font>
</defs>
</svg>
